{"asset":{"generator":"glTF-Transform v4.4.2","version":"2.0","extras":{"author":"Michael Karel (https://sketchfab.com/michaelkarel)","license":"CC-BY-4.0 (http://creativecommons.org/licenses/by/4.0/)","source":"https://sketchfab.com/3d-models/m9-bayonet-knife-eb61a59f65e449d2a2eabbaef76a4a43","title":"M9 Bayonet knife"}},"accessors":[{"type":"SCALAR","componentType":5123,"count":4911,"normalized":false,"byteOffset":0,"bufferView":3},{"type":"VEC3","componentType":5120,"count":1222,"normalized":true,"byteOffset":0,"bufferView":4},{"type":"VEC4","componentType":5120,"count":1222,"normalized":true,"byteOffset":0,"bufferView":5},{"type":"VEC3","componentType":5122,"count":1222,"max":[3240,8493,32767],"min":[-3240,-8493,-32767],"normalized":true,"byteOffset":0,"bufferView":6},{"type":"VEC2","componentType":5123,"count":1222,"normalized":true,"byteOffset":0,"bufferView":7}],"bufferViews":[{"buffer":2,"byteOffset":0,"byteLength":630608},{"buffer":3,"byteOffset":0,"byteLength":995078},{"buffer":4,"byteOffset":0,"byteLength":867286},{"buffer":1,"byteOffset":0,"byteLength":9822,"target":34963,"extensions":{"EXT_meshopt_compression":{"buffer":0,"byteOffset":0,"byteLength":1814,"mode":"TRIANGLES","byteStride":2,"count":4911}}},{"buffer":1,"byteOffset":9824,"byteLength":4888,"target":34962,"byteStride":4,"extensions":{"EXT_meshopt_compression":{"buffer":0,"byteOffset":1816,"byteLength":1971,"mode":"ATTRIBUTES","filter":"OCTAHEDRAL","byteStride":4,"count":1222}}},{"buffer":1,"byteOffset":14712,"byteLength":4888,"target":34962,"byteStride":4,"extensions":{"EXT_meshopt_compression":{"buffer":0,"byteOffset":3788,"byteLength":1416,"mode":"ATTRIBUTES","filter":"OCTAHEDRAL","byteStride":4,"count":1222}}},{"buffer":1,"byteOffset":19600,"byteLength":9776,"target":34962,"byteStride":8,"extensions":{"EXT_meshopt_compression":{"buffer":0,"byteOffset":5204,"byteLength":5529,"mode":"ATTRIBUTES","byteStride":8,"count":1222}}},{"buffer":1,"byteOffset":29376,"byteLength":4888,"target":34962,"byteStride":4,"extensions":{"EXT_meshopt_compression":{"buffer":0,"byteOffset":10736,"byteLength":4087,"mode":"ATTRIBUTES","byteStride":4,"count":1222}}}],"samplers":[{"magFilter":9729,"minFilter":9987,"wrapS":10497,"wrapT":10497}],"textures":[{"sampler":0,"extensions":{"EXT_texture_webp":{"source":0}}},{"sampler":0,"extensions":{"EXT_texture_webp":{"source":2}}},{"sampler":0,"extensions":{"EXT_texture_webp":{"source":1}}}],"images":[{"mimeType":"image/webp","bufferView":0},{"mimeType":"image/webp","bufferView":1},{"mimeType":"image/webp","bufferView":2}],"buffers":[{"byteLength":14824,"uri":"combat-m9-geometry.bin"},{"byteLength":34264,"extensions":{"EXT_meshopt_compression":{"fallback":true}}},{"byteLength":630608,"uri":"combat-m9-texture-0.webp"},{"byteLength":995078,"uri":"combat-m9-texture-1.webp"},{"byteLength":867286,"uri":"combat-m9-texture-2.webp"}],"materials":[{"name":"material","doubleSided":true,"pbrMetallicRoughness":{"baseColorTexture":{"index":0},"metallicRoughnessTexture":{"index":2}},"normalTexture":{"index":1},"occlusionTexture":{"index":2}}],"meshes":[{"name":"M9_M9_0","primitives":[{"attributes":{"NORMAL":1,"TANGENT":2,"POSITION":3,"TEXCOORD_0":4},"mode":4,"material":0,"indices":0}]}],"nodes":[{"name":"Sketchfab_model","rotation":[-0.7071067811865475,0,0,0.7071067811865476],"children":[1]},{"name":"334c51397a20459ab89e266563de38d2.fbx","rotation":[0.7071067811865475,0,0,0.7071067811865476],"children":[2]},{"name":"RootNode","children":[3]},{"name":"M9","children":[4]},{"name":"M9_M9_0","translation":[0,0.23005521297454834,7.857008695602417],"scale":[15.348317384719849,15.348317384719849,15.348317384719849],"mesh":0}],"scenes":[{"name":"Sketchfab_Scene","nodes":[0]}],"scene":0,"extensionsUsed":["EXT_meshopt_compression","EXT_texture_webp","KHR_mesh_quantization"],"extensionsRequired":["EXT_meshopt_compression","EXT_texture_webp","KHR_mesh_quantization"]}