{"asset":{"version":"2.0","generator":"Memento calibrated collection 34"},"scene":0,"scenes":[{"nodes":[0,1,2,3,4,5,6,7,8,9,10,11,12],"extras":{"mementoRig":{"version":34,"length":4.5,"pivot":[-0.12392982881030838,0.04811693937993902,0.021608497580704527],"axis":[0,0,1],"closedAngle":-2.985428,"sourceFile":"gerber_pocket_knife.glb"}}}],"nodes":[{"name":"gerber-blade-33-0","mesh":0,"extras":{"knifePart":1,"movingBlade":true}},{"name":"gerber-blade-35-0","mesh":1,"extras":{"knifePart":1,"movingBlade":true}},{"name":"gerber-body-37-0","mesh":2,"extras":{"knifePart":0,"movingBlade":false}},{"name":"gerber-body-39-0","mesh":3,"extras":{"knifePart":0,"movingBlade":false}},{"name":"gerber-body-41-0","mesh":4,"extras":{"knifePart":0,"movingBlade":false}},{"name":"gerber-body-43-0","mesh":5,"extras":{"knifePart":0,"movingBlade":false}},{"name":"gerber-body-46-0","mesh":6,"extras":{"knifePart":0,"movingBlade":false}},{"name":"gerber-body-48-0","mesh":7,"extras":{"knifePart":0,"movingBlade":false}},{"name":"gerber-body-50-0","mesh":8,"extras":{"knifePart":0,"movingBlade":false}},{"name":"gerber-body-52-0","mesh":9,"extras":{"knifePart":0,"movingBlade":false}},{"name":"gerber-body-54-0","mesh":10,"extras":{"knifePart":0,"movingBlade":false}},{"name":"gerber-body-56-0","mesh":11,"extras":{"knifePart":2,"movingBlade":false}},{"name":"gerber-body-58-0","mesh":12,"extras":{"knifePart":2,"movingBlade":false}}],"meshes":[{"name":"gerber-blade-33-0","primitives":[{"attributes":{"NORMAL":0,"POSITION":1,"TANGENT":2,"TEXCOORD_0":3},"material":0,"indices":4}]},{"name":"gerber-blade-35-0","primitives":[{"attributes":{"NORMAL":5,"POSITION":6,"TANGENT":7,"TEXCOORD_0":8},"material":0,"indices":9}]},{"name":"gerber-body-37-0","primitives":[{"attributes":{"NORMAL":10,"POSITION":11,"TANGENT":12,"TEXCOORD_0":13},"material":0,"indices":14}]},{"name":"gerber-body-39-0","primitives":[{"attributes":{"NORMAL":15,"POSITION":16,"TANGENT":17,"TEXCOORD_0":18},"material":0,"indices":19}]},{"name":"gerber-body-41-0","primitives":[{"attributes":{"NORMAL":20,"POSITION":21,"TANGENT":22,"TEXCOORD_0":23},"material":0,"indices":24}]},{"name":"gerber-body-43-0","primitives":[{"attributes":{"NORMAL":25,"POSITION":26,"TANGENT":27,"TEXCOORD_0":28},"material":0,"indices":29}]},{"name":"gerber-body-46-0","primitives":[{"attributes":{"NORMAL":30,"POSITION":31,"TANGENT":32,"TEXCOORD_0":33},"material":0,"indices":34}]},{"name":"gerber-body-48-0","primitives":[{"attributes":{"NORMAL":35,"POSITION":36,"TANGENT":37,"TEXCOORD_0":38},"material":0,"indices":39}]},{"name":"gerber-body-50-0","primitives":[{"attributes":{"NORMAL":40,"POSITION":41,"TANGENT":42,"TEXCOORD_0":43},"material":0,"indices":44}]},{"name":"gerber-body-52-0","primitives":[{"attributes":{"NORMAL":45,"POSITION":46,"TANGENT":47,"TEXCOORD_0":48},"material":0,"indices":49}]},{"name":"gerber-body-54-0","primitives":[{"attributes":{"NORMAL":50,"POSITION":51,"TANGENT":52,"TEXCOORD_0":53},"material":0,"indices":54}]},{"name":"gerber-body-56-0","primitives":[{"attributes":{"NORMAL":55,"POSITION":56,"TANGENT":57,"TEXCOORD_0":58},"material":0,"indices":59}]},{"name":"gerber-body-58-0","primitives":[{"attributes":{"NORMAL":60,"POSITION":61,"TANGENT":62,"TEXCOORD_0":63},"material":0,"indices":64}]}],"accessors":[{"componentType":5126,"count":289,"type":"VEC3","bufferView":0,"min":[-0.9999815225601196,-0.9999698996543884,-1.0],"max":[0.9999716877937317,1.0,1.0]},{"componentType":5126,"count":289,"type":"VEC3","bufferView":1,"min":[-0.3571884334087372,-0.04376547783613205,-0.009251697920262814],"max":[0.13450685143470764,2.25,0.05238452926278114]},{"componentType":5126,"count":289,"type":"VEC4","bufferView":2},{"componentType":5126,"count":289,"type":"VEC2","bufferView":3},{"componentType":5125,"count":1020,"type":"SCALAR","bufferView":4},{"componentType":5126,"count":491,"type":"VEC3","bufferView":5,"min":[-0.9999886751174927,-0.9998548030853271,-0.9999088048934937],"max":[0.9993996024131775,0.9998040795326233,0.9999088048934937]},{"componentType":5126,"count":491,"type":"VEC3","bufferView":6,"min":[-0.33528053760528564,0.3147737383842468,-0.1219206154346466],"max":[-0.2418479323387146,0.4082062542438507,0.16474859416484833]},{"componentType":5126,"count":491,"type":"VEC4","bufferView":7},{"componentType":5126,"count":491,"type":"VEC2","bufferView":8},{"componentType":5125,"count":1908,"type":"SCALAR","bufferView":9},{"componentType":5126,"count":322,"type":"VEC3","bufferView":10,"min":[-0.9983271956443787,-0.9831245541572571,-1.0],"max":[0.9983493685722351,0.9954192042350769,0.9999929070472717]},{"componentType":5126,"count":322,"type":"VEC3","bufferView":11,"min":[-0.2555944323539734,-1.2170332670211792,-0.16474859416484833],"max":[0.013748597353696823,0.22726993262767792,-0.07767536491155624]},{"componentType":5126,"count":322,"type":"VEC4","bufferView":12},{"componentType":5126,"count":322,"type":"VEC2","bufferView":13},{"componentType":5125,"count":1257,"type":"SCALAR","bufferView":14},{"componentType":5126,"count":538,"type":"VEC3","bufferView":15,"min":[-0.9971631169319153,-0.9903110861778259,-1.0],"max":[0.9971631765365601,0.9903117418289185,-0.06873641908168793]},{"componentType":5126,"count":538,"type":"VEC3","bufferView":16,"min":[-0.19781629741191864,-0.02574055641889572,-0.11841273307800293],"max":[-0.05004351958632469,0.12203221768140793,-0.09029396623373032]},{"componentType":5126,"count":538,"type":"VEC4","bufferView":17},{"componentType":5126,"count":538,"type":"VEC2","bufferView":18},{"componentType":5125,"count":2376,"type":"SCALAR","bufferView":19},{"componentType":5126,"count":382,"type":"VEC3","bufferView":20,"min":[-0.9971973299980164,-0.9876855611801147,-1.0],"max":[0.9971973299980164,0.9876856803894043,-0.0664157122373581]},{"componentType":5126,"count":382,"type":"VEC3","bufferView":21,"min":[-0.23718401789665222,0.10855934768915176,-0.1078464686870575],"max":[-0.14587906002998352,0.1998642534017563,-0.09029396623373032]},{"componentType":5126,"count":382,"type":"VEC4","bufferView":22},{"componentType":5126,"count":382,"type":"VEC2","bufferView":23},{"componentType":5125,"count":1644,"type":"SCALAR","bufferView":24},{"componentType":5126,"count":382,"type":"VEC3","bufferView":25,"min":[-0.9936642050743103,-0.992972731590271,-1.0],"max":[0.9936645030975342,0.9929730296134949,-0.06641484797000885]},{"componentType":5126,"count":382,"type":"VEC3","bufferView":26,"min":[-0.10393613576889038,0.11011488735675812,-0.1078464686870575],"max":[-0.01574232429265976,0.19830869138240814,-0.09029396623373032]},{"componentType":5126,"count":382,"type":"VEC4","bufferView":27},{"componentType":5126,"count":382,"type":"VEC2","bufferView":28},{"componentType":5125,"count":1644,"type":"SCALAR","bufferView":29},{"componentType":5126,"count":738,"type":"VEC3","bufferView":30,"min":[-0.9961972832679749,-0.9965770244598389,-0.9999993443489075],"max":[0.99519282579422,0.9965566396713257,1.0]},{"componentType":5126,"count":738,"type":"VEC3","bufferView":31,"min":[0.11295055598020554,-2.1724648475646973,-0.07767552882432938],"max":[0.21075040102005005,-2.0746641159057617,0.11963628977537155]},{"componentType":5126,"count":738,"type":"VEC4","bufferView":32},{"componentType":5126,"count":738,"type":"VEC2","bufferView":33},{"componentType":5125,"count":2874,"type":"SCALAR","bufferView":34},{"componentType":5126,"count":243,"type":"VEC3","bufferView":35,"min":[-0.9996619820594788,-0.9993161559104919,-0.9999986886978149],"max":[0.9999563097953796,0.9997851252555847,0.9999986886978149]},{"componentType":5126,"count":243,"type":"VEC3","bufferView":36,"min":[-0.3132331371307373,-0.15664899349212646,-0.07767552882432938],"max":[-0.24106526374816895,-0.08448109030723572,0.1208081915974617]},{"componentType":5126,"count":243,"type":"VEC4","bufferView":37},{"componentType":5126,"count":243,"type":"VEC2","bufferView":38},{"componentType":5125,"count":852,"type":"SCALAR","bufferView":39},{"componentType":5126,"count":193,"type":"VEC3","bufferView":40,"min":[-0.9993134140968323,-0.9996411204338074,-8.141591933963355e-07],"max":[0.9999982714653015,0.9999972581863403,1.0]},{"componentType":5126,"count":193,"type":"VEC3","bufferView":41,"min":[-0.20430438220500946,-0.03222869709134102,0.09334534406661987],"max":[-0.043555423617362976,0.12852035462856293,0.11971637606620789]},{"componentType":5126,"count":193,"type":"VEC4","bufferView":42},{"componentType":5126,"count":193,"type":"VEC2","bufferView":43},{"componentType":5125,"count":936,"type":"SCALAR","bufferView":44},{"componentType":5126,"count":738,"type":"VEC3","bufferView":45,"min":[-0.9999582767486572,-0.999768078327179,-0.9999993443489075],"max":[0.9990313053131104,0.9999210238456726,1.0]},{"componentType":5126,"count":738,"type":"VEC3","bufferView":46,"min":[-0.17463301122188568,-1.726365089416504,-0.07767552882432938],"max":[-0.07652922719717026,-1.628260850906372,0.11963628977537155]},{"componentType":5126,"count":738,"type":"VEC4","bufferView":47},{"componentType":5126,"count":738,"type":"VEC2","bufferView":48},{"componentType":5125,"count":2874,"type":"SCALAR","bufferView":49},{"componentType":5126,"count":738,"type":"VEC3","bufferView":50,"min":[-0.9999582767486572,-0.999768078327179,-0.9999993443489075],"max":[0.9990313053131104,0.9999210238456726,1.0]},{"componentType":5126,"count":738,"type":"VEC3","bufferView":51,"min":[-0.35228273272514343,-0.8198073506355286,-0.07767552882432938],"max":[-0.2541789710521698,-0.7217031121253967,0.11963628977537155]},{"componentType":5126,"count":738,"type":"VEC4","bufferView":52},{"componentType":5126,"count":738,"type":"VEC2","bufferView":53},{"componentType":5125,"count":2874,"type":"SCALAR","bufferView":54},{"componentType":5126,"count":3124,"type":"VEC3","bufferView":55,"min":[-0.9998742938041687,-0.999999463558197,-0.9999998807907104],"max":[1.0,0.9999546408653259,1.0]},{"componentType":5126,"count":3124,"type":"VEC3","bufferView":56,"min":[-0.39176303148269653,-2.25,-0.07767536491155624],"max":[0.39172348380088806,0.3097749352455139,-0.009251697920262814]},{"componentType":5126,"count":3124,"type":"VEC4","bufferView":57},{"componentType":5126,"count":3124,"type":"VEC2","bufferView":58},{"componentType":5125,"count":14616,"type":"SCALAR","bufferView":59},{"componentType":5126,"count":3163,"type":"VEC3","bufferView":60,"min":[-0.9999874830245972,-0.9999999403953552,-0.9999971985816956],"max":[0.9998823404312134,0.9999995827674866,1.0]},{"componentType":5126,"count":3163,"type":"VEC3","bufferView":61,"min":[-0.39241823554039,-2.2499711513519287,0.051134757697582245],"max":[0.39241823554039,0.3098038136959076,0.12346617132425308]},{"componentType":5126,"count":3163,"type":"VEC4","bufferView":62},{"componentType":5126,"count":3163,"type":"VEC2","bufferView":63},{"componentType":5125,"count":15114,"type":"SCALAR","bufferView":64}],"bufferViews":[{"buffer":0,"byteOffset":0,"byteLength":3468},{"buffer":0,"byteOffset":3468,"byteLength":3468},{"buffer":0,"byteOffset":6936,"byteLength":4624},{"buffer":0,"byteOffset":11560,"byteLength":2312},{"buffer":0,"byteOffset":13872,"byteLength":4080},{"buffer":0,"byteOffset":17952,"byteLength":5892},{"buffer":0,"byteOffset":23844,"byteLength":5892},{"buffer":0,"byteOffset":29736,"byteLength":7856},{"buffer":0,"byteOffset":37592,"byteLength":3928},{"buffer":0,"byteOffset":41520,"byteLength":7632},{"buffer":0,"byteOffset":49152,"byteLength":3864},{"buffer":0,"byteOffset":53016,"byteLength":3864},{"buffer":0,"byteOffset":56880,"byteLength":5152},{"buffer":0,"byteOffset":62032,"byteLength":2576},{"buffer":0,"byteOffset":64608,"byteLength":5028},{"buffer":0,"byteOffset":69636,"byteLength":6456},{"buffer":0,"byteOffset":76092,"byteLength":6456},{"buffer":0,"byteOffset":82548,"byteLength":8608},{"buffer":0,"byteOffset":91156,"byteLength":4304},{"buffer":0,"byteOffset":95460,"byteLength":9504},{"buffer":0,"byteOffset":104964,"byteLength":4584},{"buffer":0,"byteOffset":109548,"byteLength":4584},{"buffer":0,"byteOffset":114132,"byteLength":6112},{"buffer":0,"byteOffset":120244,"byteLength":3056},{"buffer":0,"byteOffset":123300,"byteLength":6576},{"buffer":0,"byteOffset":129876,"byteLength":4584},{"buffer":0,"byteOffset":134460,"byteLength":4584},{"buffer":0,"byteOffset":139044,"byteLength":6112},{"buffer":0,"byteOffset":145156,"byteLength":3056},{"buffer":0,"byteOffset":148212,"byteLength":6576},{"buffer":0,"byteOffset":154788,"byteLength":8856},{"buffer":0,"byteOffset":163644,"byteLength":8856},{"buffer":0,"byteOffset":172500,"byteLength":11808},{"buffer":0,"byteOffset":184308,"byteLength":5904},{"buffer":0,"byteOffset":190212,"byteLength":11496},{"buffer":0,"byteOffset":201708,"byteLength":2916},{"buffer":0,"byteOffset":204624,"byteLength":2916},{"buffer":0,"byteOffset":207540,"byteLength":3888},{"buffer":0,"byteOffset":211428,"byteLength":1944},{"buffer":0,"byteOffset":213372,"byteLength":3408},{"buffer":0,"byteOffset":216780,"byteLength":2316},{"buffer":0,"byteOffset":219096,"byteLength":2316},{"buffer":0,"byteOffset":221412,"byteLength":3088},{"buffer":0,"byteOffset":224500,"byteLength":1544},{"buffer":0,"byteOffset":226044,"byteLength":3744},{"buffer":0,"byteOffset":229788,"byteLength":8856},{"buffer":0,"byteOffset":238644,"byteLength":8856},{"buffer":0,"byteOffset":247500,"byteLength":11808},{"buffer":0,"byteOffset":259308,"byteLength":5904},{"buffer":0,"byteOffset":265212,"byteLength":11496},{"buffer":0,"byteOffset":276708,"byteLength":8856},{"buffer":0,"byteOffset":285564,"byteLength":8856},{"buffer":0,"byteOffset":294420,"byteLength":11808},{"buffer":0,"byteOffset":306228,"byteLength":5904},{"buffer":0,"byteOffset":312132,"byteLength":11496},{"buffer":0,"byteOffset":323628,"byteLength":37488},{"buffer":0,"byteOffset":361116,"byteLength":37488},{"buffer":0,"byteOffset":398604,"byteLength":49984},{"buffer":0,"byteOffset":448588,"byteLength":24992},{"buffer":0,"byteOffset":473580,"byteLength":58464},{"buffer":0,"byteOffset":532044,"byteLength":37956},{"buffer":0,"byteOffset":570000,"byteLength":37956},{"buffer":0,"byteOffset":607956,"byteLength":50608},{"buffer":0,"byteOffset":658564,"byteLength":25304},{"buffer":0,"byteOffset":683868,"byteLength":60456}],"buffers":[{"uri":"geometry.bin","byteLength":744324}],"materials":[{"doubleSided":true,"name":"lambert1","normalTexture":{"index":2},"pbrMetallicRoughness":{"baseColorTexture":{"index":0},"metallicRoughnessTexture":{"index":1}}}],"textures":[{"sampler":0,"extensions":{"EXT_texture_webp":{"source":0}}},{"sampler":0,"extensions":{"EXT_texture_webp":{"source":1}}},{"sampler":0,"extensions":{"EXT_texture_webp":{"source":2}}}],"images":[{"uri":"optimized/242e8944c98a9077.webp","mimeType":"image/webp"},{"uri":"optimized/c02adf7ce4d45da1.webp","mimeType":"image/webp"},{"uri":"optimized/20bdc45b97dc99a2.webp","mimeType":"image/webp"}],"samplers":[{"magFilter":9729,"minFilter":9987,"wrapS":10497,"wrapT":10497}],"extensionsUsed":["EXT_texture_webp"],"extensionsRequired":["EXT_texture_webp"]}
