{"asset":{"version":"2.0","generator":"Memento calibrated collection 34"},"scene":0,"scenes":[{"nodes":[0,1,2,3,4,5,6,7,8,9,10],"extras":{"mementoRig":{"version":34,"length":4.5,"pivot":[-0.04507593819462956,0.09288812066200267,-0.06140562321618977],"axis":[0,0,1],"closedAngle":3.141592653589793,"sourceFile":"folding_knife.glb"}}}],"nodes":[{"name":"folding-body-3-0","mesh":0,"extras":{"knifePart":0,"movingBlade":false}},{"name":"folding-body-5-0","mesh":1,"extras":{"knifePart":0,"movingBlade":false}},{"name":"folding-blade-7-0","mesh":2,"extras":{"knifePart":1,"movingBlade":true}},{"name":"folding-body-9-0","mesh":3,"extras":{"knifePart":2,"movingBlade":false}},{"name":"folding-body-11-0","mesh":4,"extras":{"knifePart":0,"movingBlade":false}},{"name":"folding-body-13-0","mesh":5,"extras":{"knifePart":2,"movingBlade":false}},{"name":"folding-body-15-0","mesh":6,"extras":{"knifePart":0,"movingBlade":false}},{"name":"folding-body-17-0","mesh":7,"extras":{"knifePart":0,"movingBlade":false}},{"name":"folding-body-19-0","mesh":8,"extras":{"knifePart":0,"movingBlade":false}},{"name":"folding-body-21-0","mesh":9,"extras":{"knifePart":2,"movingBlade":false}},{"name":"folding-body-23-0","mesh":10,"extras":{"knifePart":2,"movingBlade":false}}],"meshes":[{"name":"folding-body-3-0","primitives":[{"attributes":{"NORMAL":0,"POSITION":1,"TANGENT":2,"TEXCOORD_0":3},"material":8,"indices":4}]},{"name":"folding-body-5-0","primitives":[{"attributes":{"NORMAL":5,"POSITION":6,"TANGENT":7,"TEXCOORD_0":8},"material":7,"indices":9}]},{"name":"folding-blade-7-0","primitives":[{"attributes":{"NORMAL":10,"POSITION":11,"TANGENT":12,"TEXCOORD_0":13},"material":6,"indices":14}]},{"name":"folding-body-9-0","primitives":[{"attributes":{"NORMAL":15,"POSITION":16,"TANGENT":17,"TEXCOORD_0":18},"material":5,"indices":19}]},{"name":"folding-body-11-0","primitives":[{"attributes":{"NORMAL":20,"POSITION":21,"TANGENT":22,"TEXCOORD_0":23},"material":4,"indices":24}]},{"name":"folding-body-13-0","primitives":[{"attributes":{"NORMAL":25,"POSITION":26,"TANGENT":27,"TEXCOORD_0":28},"material":3,"indices":29}]},{"name":"folding-body-15-0","primitives":[{"attributes":{"NORMAL":30,"POSITION":31,"TANGENT":32,"TEXCOORD_0":33},"material":2,"indices":34}]},{"name":"folding-body-17-0","primitives":[{"attributes":{"NORMAL":35,"POSITION":36,"TANGENT":37,"TEXCOORD_0":38},"material":2,"indices":39}]},{"name":"folding-body-19-0","primitives":[{"attributes":{"NORMAL":40,"POSITION":41,"TANGENT":42,"TEXCOORD_0":43},"material":2,"indices":44}]},{"name":"folding-body-21-0","primitives":[{"attributes":{"NORMAL":45,"POSITION":46,"TANGENT":47,"TEXCOORD_0":48},"material":1,"indices":49}]},{"name":"folding-body-23-0","primitives":[{"attributes":{"NORMAL":50,"POSITION":51,"TANGENT":52,"TEXCOORD_0":53},"material":0,"indices":54}]}],"accessors":[{"componentType":5126,"count":200,"type":"VEC3","bufferView":0,"min":[-1.0,-1.0,-1.1628861074086672e-07],"max":[1.0,1.0,1.0]},{"componentType":5126,"count":200,"type":"VEC3","bufferView":1,"min":[-0.2296912521123886,0.05528198927640915,0.10031288862228394],"max":[0.14482221007347107,0.1726091504096985,0.12320993840694427]},{"componentType":5126,"count":200,"type":"VEC4","bufferView":2},{"componentType":5126,"count":200,"type":"VEC2","bufferView":3},{"componentType":5125,"count":936,"type":"SCALAR","bufferView":4},{"componentType":5126,"count":1382,"type":"VEC3","bufferView":5,"min":[-0.999993085861206,-0.9992706179618835,-0.9999983906745911],"max":[0.9999986290931702,0.9992656111717224,0.9999983310699463]},{"componentType":5126,"count":1382,"type":"VEC3","bufferView":6,"min":[-0.2394113689661026,-1.2219476699829102,0.08086048811674118],"max":[0.1586284339427948,0.3038584589958191,0.22326600551605225]},{"componentType":5126,"count":1382,"type":"VEC4","bufferView":7},{"componentType":5126,"count":1382,"type":"VEC2","bufferView":8},{"componentType":5125,"count":5664,"type":"SCALAR","bufferView":9},{"componentType":5126,"count":668,"type":"VEC3","bufferView":10,"min":[-1.0,-1.0,-1.0],"max":[1.0,1.0,1.0]},{"componentType":5126,"count":668,"type":"VEC3","bufferView":11,"min":[-0.3968693017959595,-0.036250364035367966,-0.2009669542312622],"max":[0.35574090480804443,2.25,0.07815562188625336]},{"componentType":5126,"count":668,"type":"VEC4","bufferView":12},{"componentType":5126,"count":668,"type":"VEC2","bufferView":13},{"componentType":5125,"count":2868,"type":"SCALAR","bufferView":14},{"componentType":5126,"count":1144,"type":"VEC3","bufferView":15,"min":[-0.999692440032959,-0.9995534420013428,-1.0],"max":[0.9996297955513,0.9980924129486084,1.0]},{"componentType":5126,"count":1144,"type":"VEC3","bufferView":16,"min":[-0.36402061581611633,-2.25,-0.20640252530574799],"max":[0.3968693017959595,0.34990882873535156,-0.1368822604417801]},{"componentType":5126,"count":1144,"type":"VEC4","bufferView":17},{"componentType":5126,"count":1144,"type":"VEC2","bufferView":18},{"componentType":5125,"count":6312,"type":"SCALAR","bufferView":19},{"componentType":5126,"count":246,"type":"VEC3","bufferView":20,"min":[-0.9759951829910278,-0.9759951829910278,-1.0],"max":[0.9759951829910278,0.9759950041770935,1.0]},{"componentType":5126,"count":246,"type":"VEC3","bufferView":21,"min":[-0.1584906131029129,-0.020526576787233353,-0.22326600551605225],"max":[0.06833874434232712,0.20630282163619995,0.10045475512742996]},{"componentType":5126,"count":246,"type":"VEC4","bufferView":22},{"componentType":5126,"count":246,"type":"VEC2","bufferView":23},{"componentType":5125,"count":852,"type":"SCALAR","bufferView":24},{"componentType":5126,"count":890,"type":"VEC3","bufferView":25,"min":[-0.999992847442627,-0.9998785257339478,-1.0],"max":[0.9999353289604187,0.9983954429626465,1.0]},{"componentType":5126,"count":890,"type":"VEC3","bufferView":26,"min":[-0.3640204966068268,-2.25,-0.13688282668590546],"max":[0.3968693017959595,0.34990888833999634,-0.09219254553318024]},{"componentType":5126,"count":890,"type":"VEC4","bufferView":27},{"componentType":5126,"count":890,"type":"VEC2","bufferView":28},{"componentType":5125,"count":4248,"type":"SCALAR","bufferView":29},{"componentType":5126,"count":50,"type":"VEC3","bufferView":30,"min":[-1.0,-1.0,-1.0],"max":[1.0,1.0,1.0]},{"componentType":5126,"count":50,"type":"VEC3","bufferView":31,"min":[-0.29626110196113586,0.13667897880077362,-0.18982408940792084],"max":[-0.20594669878482819,0.22699643671512604,0.054858434945344925]},{"componentType":5126,"count":50,"type":"VEC4","bufferView":32},{"componentType":5126,"count":50,"type":"VEC2","bufferView":33},{"componentType":5125,"count":132,"type":"SCALAR","bufferView":34},{"componentType":5126,"count":50,"type":"VEC3","bufferView":35,"min":[-1.0,-1.0,-1.0],"max":[1.0,1.0,1.0]},{"componentType":5126,"count":50,"type":"VEC3","bufferView":36,"min":[-0.31465211510658264,-1.3981866836547852,-0.18982435762882233],"max":[-0.22433771193027496,-1.3078691959381104,0.054858166724443436]},{"componentType":5126,"count":50,"type":"VEC4","bufferView":37},{"componentType":5126,"count":50,"type":"VEC2","bufferView":38},{"componentType":5125,"count":132,"type":"SCALAR","bufferView":39},{"componentType":5126,"count":50,"type":"VEC3","bufferView":40,"min":[-1.0,-1.0,-1.0],"max":[1.0,1.0,1.0]},{"componentType":5126,"count":50,"type":"VEC3","bufferView":41,"min":[-0.0140856197103858,-2.156873941421509,-0.1898244172334671],"max":[0.07622877508401871,-2.066556453704834,0.05485811084508896]},{"componentType":5126,"count":50,"type":"VEC4","bufferView":42},{"componentType":5126,"count":50,"type":"VEC2","bufferView":43},{"componentType":5125,"count":132,"type":"SCALAR","bufferView":44},{"componentType":5126,"count":890,"type":"VEC3","bufferView":45,"min":[-0.999992847442627,-0.9998785257339478,-1.0],"max":[0.9999353289604187,0.9983954429626465,1.0]},{"componentType":5126,"count":890,"type":"VEC3","bufferView":46,"min":[-0.3640204966068268,-2.25,-0.030619747936725616],"max":[0.3968693017959595,0.34990885853767395,0.014070532284677029]},{"componentType":5126,"count":890,"type":"VEC4","bufferView":47},{"componentType":5126,"count":890,"type":"VEC2","bufferView":48},{"componentType":5125,"count":4248,"type":"SCALAR","bufferView":49},{"componentType":5126,"count":983,"type":"VEC3","bufferView":50,"min":[-0.9996923804283142,-0.9995534420013428,-1.0],"max":[0.999660313129425,0.9980923533439636,1.0]},{"componentType":5126,"count":983,"type":"VEC3","bufferView":51,"min":[-0.3640204966068268,-2.25,0.014070230536162853],"max":[0.3968693017959595,0.34990885853767395,0.08359026908874512]},{"componentType":5126,"count":983,"type":"VEC4","bufferView":52},{"componentType":5126,"count":983,"type":"VEC2","bufferView":53},{"componentType":5125,"count":5346,"type":"SCALAR","bufferView":54}],"bufferViews":[{"buffer":0,"byteOffset":0,"byteLength":2400},{"buffer":0,"byteOffset":2400,"byteLength":2400},{"buffer":0,"byteOffset":4800,"byteLength":3200},{"buffer":0,"byteOffset":8000,"byteLength":1600},{"buffer":0,"byteOffset":9600,"byteLength":3744},{"buffer":0,"byteOffset":13344,"byteLength":16584},{"buffer":0,"byteOffset":29928,"byteLength":16584},{"buffer":0,"byteOffset":46512,"byteLength":22112},{"buffer":0,"byteOffset":68624,"byteLength":11056},{"buffer":0,"byteOffset":79680,"byteLength":22656},{"buffer":0,"byteOffset":102336,"byteLength":8016},{"buffer":0,"byteOffset":110352,"byteLength":8016},{"buffer":0,"byteOffset":118368,"byteLength":10688},{"buffer":0,"byteOffset":129056,"byteLength":5344},{"buffer":0,"byteOffset":134400,"byteLength":11472},{"buffer":0,"byteOffset":145872,"byteLength":13728},{"buffer":0,"byteOffset":159600,"byteLength":13728},{"buffer":0,"byteOffset":173328,"byteLength":18304},{"buffer":0,"byteOffset":191632,"byteLength":9152},{"buffer":0,"byteOffset":200784,"byteLength":25248},{"buffer":0,"byteOffset":226032,"byteLength":2952},{"buffer":0,"byteOffset":228984,"byteLength":2952},{"buffer":0,"byteOffset":231936,"byteLength":3936},{"buffer":0,"byteOffset":235872,"byteLength":1968},{"buffer":0,"byteOffset":237840,"byteLength":3408},{"buffer":0,"byteOffset":241248,"byteLength":10680},{"buffer":0,"byteOffset":251928,"byteLength":10680},{"buffer":0,"byteOffset":262608,"byteLength":14240},{"buffer":0,"byteOffset":276848,"byteLength":7120},{"buffer":0,"byteOffset":283968,"byteLength":16992},{"buffer":0,"byteOffset":300960,"byteLength":600},{"buffer":0,"byteOffset":301560,"byteLength":600},{"buffer":0,"byteOffset":302160,"byteLength":800},{"buffer":0,"byteOffset":302960,"byteLength":400},{"buffer":0,"byteOffset":303360,"byteLength":528},{"buffer":0,"byteOffset":303888,"byteLength":600},{"buffer":0,"byteOffset":304488,"byteLength":600},{"buffer":0,"byteOffset":305088,"byteLength":800},{"buffer":0,"byteOffset":305888,"byteLength":400},{"buffer":0,"byteOffset":306288,"byteLength":528},{"buffer":0,"byteOffset":306816,"byteLength":600},{"buffer":0,"byteOffset":307416,"byteLength":600},{"buffer":0,"byteOffset":308016,"byteLength":800},{"buffer":0,"byteOffset":308816,"byteLength":400},{"buffer":0,"byteOffset":309216,"byteLength":528},{"buffer":0,"byteOffset":309744,"byteLength":10680},{"buffer":0,"byteOffset":320424,"byteLength":10680},{"buffer":0,"byteOffset":331104,"byteLength":14240},{"buffer":0,"byteOffset":345344,"byteLength":7120},{"buffer":0,"byteOffset":352464,"byteLength":16992},{"buffer":0,"byteOffset":369456,"byteLength":11796},{"buffer":0,"byteOffset":381252,"byteLength":11796},{"buffer":0,"byteOffset":393048,"byteLength":15728},{"buffer":0,"byteOffset":408776,"byteLength":7864},{"buffer":0,"byteOffset":416640,"byteLength":21384}],"buffers":[{"uri":"geometry.bin","byteLength":438024}],"materials":[{"doubleSided":true,"emissiveFactor":[0,0,0],"name":"latch_handle","normalTexture":{"index":1},"occlusionTexture":{"index":0},"pbrMetallicRoughness":{"metallicRoughnessTexture":{"index":0},"baseColorFactor":[0.08021982031446832,0.08021982031446832,0.08021982031446832,1.0]}},{"doubleSided":true,"emissiveFactor":[0,0,0],"name":"internal_latch","normalTexture":{"index":3},"occlusionTexture":{"index":2},"pbrMetallicRoughness":{"metallicRoughnessTexture":{"index":2},"baseColorFactor":[0.17464740365558504,0.17464740365558504,0.17464740365558504,1.0]}},{"doubleSided":true,"emissiveFactor":[0,0,0],"name":"connectors","normalTexture":{"index":5},"occlusionTexture":{"index":4},"pbrMetallicRoughness":{"metallicRoughnessTexture":{"index":4},"baseColorFactor":[0.5028864580325687,0.5028864580325687,0.5028864580325687,1.0]}},{"doubleSided":true,"emissiveFactor":[0,0,0],"name":"internal_empty","normalTexture":{"index":7},"occlusionTexture":{"index":6},"pbrMetallicRoughness":{"metallicRoughnessTexture":{"index":6},"baseColorFactor":[0.17464740365558504,0.17464740365558504,0.17464740365558504,1.0]}},{"doubleSided":true,"emissiveFactor":[0,0,0],"name":"inner_bolt","normalTexture":{"index":10},"occlusionTexture":{"index":9},"pbrMetallicRoughness":{"baseColorTexture":{"index":8},"metallicRoughnessTexture":{"index":9}}},{"doubleSided":true,"emissiveFactor":[0,0,0],"name":"empty_handle","normalTexture":{"index":12},"occlusionTexture":{"index":11},"pbrMetallicRoughness":{"metallicRoughnessTexture":{"index":11},"baseColorFactor":[0.08021982031446832,0.08021982031446832,0.08021982031446832,1.0]}},{"doubleSided":true,"emissiveFactor":[0,0,0],"name":"Blade","normalTexture":{"index":15},"occlusionTexture":{"index":14},"pbrMetallicRoughness":{"baseColorTexture":{"index":13},"metallicRoughnessTexture":{"index":14}}},{"doubleSided":true,"emissiveFactor":[0,0,0],"name":"Latch","normalTexture":{"index":18},"occlusionTexture":{"index":17},"pbrMetallicRoughness":{"baseColorTexture":{"index":16},"metallicRoughnessTexture":{"index":17}}},{"doubleSided":true,"emissiveFactor":[0,0,0],"name":"screw","normalTexture":{"index":21},"occlusionTexture":{"index":20},"pbrMetallicRoughness":{"baseColorTexture":{"index":19},"metallicRoughnessTexture":{"index":20}}}],"textures":[{"sampler":0,"source":0},{"sampler":0,"source":1},{"sampler":0,"source":2},{"sampler":0,"source":3},{"sampler":0,"source":4},{"sampler":0,"source":5},{"sampler":0,"source":6},{"sampler":0,"source":7},{"sampler":0,"source":8},{"sampler":0,"source":9},{"sampler":0,"source":10},{"sampler":0,"source":11},{"sampler":0,"source":12},{"sampler":0,"source":13},{"sampler":0,"source":14},{"sampler":0,"source":15},{"sampler":0,"source":16},{"sampler":0,"source":17},{"sampler":0,"source":18},{"sampler":0,"source":19},{"sampler":0,"source":20},{"sampler":0,"source":21}],"images":[{"uri":"texture-0cb184fd7e7be6e1.png"},{"uri":"texture-52038ea51530fae3.png"},{"uri":"texture-54879398c2546cca.png"},{"uri":"texture-26522ad87b60f3fa.png"},{"uri":"texture-f39c984063c397f3.png"},{"uri":"texture-79a899612c214038.png"},{"uri":"texture-253acf65cb8b2c14.png"},{"uri":"texture-bf3163071e4afba8.png"},{"uri":"texture-c33568d2d9545ec7.png"},{"uri":"texture-63818d5862fa48f1.png"},{"uri":"texture-ae8e66784915b8d4.png"},{"uri":"texture-d880c8aeb58d0490.png"},{"uri":"texture-f70fcbf994aea481.png"},{"uri":"texture-90c534f8aae18fb2.png"},{"uri":"texture-346b69571a3de852.png"},{"uri":"texture-846e4c84cf8ebc1f.png"},{"uri":"texture-b8339416c7829a28.png"},{"uri":"texture-27dd2ed7dde92b6c.png"},{"uri":"texture-de8b5d710ad95c4e.png"},{"uri":"texture-33558f2581ba21c3.png"},{"uri":"texture-ce5e3a5557acdce5.png"},{"uri":"texture-f444ce435422b64f.png"}],"samplers":[{"magFilter":9729,"minFilter":9987,"wrapS":10497,"wrapT":10497}]}