{"asset":{"generator":"glTF-Transform v4.4.2","version":"2.0"},"accessors":[{"type":"SCALAR","componentType":5123,"count":15324,"normalized":false,"byteOffset":0,"bufferView":0},{"type":"VEC3","componentType":5120,"count":3213,"normalized":true,"byteOffset":0,"bufferView":1},{"type":"VEC4","componentType":5120,"count":3213,"normalized":true,"byteOffset":0,"bufferView":2},{"type":"SCALAR","componentType":5123,"count":34860,"normalized":false,"byteOffset":30648,"bufferView":0},{"type":"VEC3","componentType":5120,"count":7645,"normalized":true,"byteOffset":0,"bufferView":3},{"type":"VEC4","componentType":5120,"count":7645,"normalized":true,"byteOffset":0,"bufferView":4},{"type":"SCALAR","componentType":5123,"count":38328,"normalized":false,"byteOffset":100368,"bufferView":0},{"type":"VEC3","componentType":5120,"count":7745,"normalized":true,"byteOffset":0,"bufferView":5},{"type":"VEC4","componentType":5120,"count":7745,"normalized":true,"byteOffset":0,"bufferView":6},{"type":"SCALAR","componentType":5123,"count":8076,"normalized":false,"byteOffset":177024,"bufferView":0},{"type":"VEC3","componentType":5120,"count":1830,"normalized":true,"byteOffset":0,"bufferView":7},{"type":"VEC4","componentType":5120,"count":1830,"normalized":true,"byteOffset":0,"bufferView":8},{"type":"SCALAR","componentType":5123,"count":10560,"normalized":false,"byteOffset":193176,"bufferView":0},{"type":"VEC3","componentType":5120,"count":2531,"normalized":true,"byteOffset":0,"bufferView":9},{"type":"VEC4","componentType":5120,"count":2531,"normalized":true,"byteOffset":0,"bufferView":10},{"type":"SCALAR","componentType":5123,"count":20304,"normalized":false,"byteOffset":214296,"bufferView":0},{"type":"VEC3","componentType":5120,"count":4018,"normalized":true,"byteOffset":0,"bufferView":11},{"type":"VEC4","componentType":5120,"count":4018,"normalized":true,"byteOffset":0,"bufferView":12},{"type":"SCALAR","componentType":5123,"count":6696,"normalized":false,"byteOffset":254904,"bufferView":0},{"type":"VEC3","componentType":5120,"count":1452,"normalized":true,"byteOffset":0,"bufferView":13},{"type":"VEC4","componentType":5120,"count":1452,"normalized":true,"byteOffset":0,"bufferView":14},{"type":"SCALAR","componentType":5123,"count":27414,"normalized":false,"byteOffset":268296,"bufferView":0},{"type":"VEC3","componentType":5120,"count":5832,"normalized":true,"byteOffset":0,"bufferView":15},{"type":"VEC4","componentType":5120,"count":5832,"normalized":true,"byteOffset":0,"bufferView":16},{"type":"SCALAR","componentType":5123,"count":24882,"normalized":false,"byteOffset":323124,"bufferView":0},{"type":"VEC3","componentType":5120,"count":6467,"normalized":true,"byteOffset":0,"bufferView":17},{"type":"VEC4","componentType":5120,"count":6467,"normalized":true,"byteOffset":0,"bufferView":18},{"type":"SCALAR","componentType":5123,"count":2406,"normalized":false,"byteOffset":372888,"bufferView":0},{"type":"VEC3","componentType":5120,"count":603,"normalized":true,"byteOffset":0,"bufferView":19},{"type":"VEC4","componentType":5120,"count":603,"normalized":true,"byteOffset":0,"bufferView":20},{"type":"SCALAR","componentType":5123,"count":8430,"normalized":false,"byteOffset":377700,"bufferView":0},{"type":"VEC3","componentType":5120,"count":1672,"normalized":true,"byteOffset":0,"bufferView":21},{"type":"VEC4","componentType":5120,"count":1672,"normalized":true,"byteOffset":0,"bufferView":22},{"type":"SCALAR","componentType":5123,"count":8484,"normalized":false,"byteOffset":394560,"bufferView":0},{"type":"VEC3","componentType":5120,"count":1681,"normalized":true,"byteOffset":0,"bufferView":23},{"type":"VEC4","componentType":5120,"count":1681,"normalized":true,"byteOffset":0,"bufferView":24},{"type":"SCALAR","componentType":5123,"count":126294,"normalized":false,"byteOffset":411528,"bufferView":0},{"type":"VEC3","componentType":5120,"count":24629,"normalized":true,"byteOffset":0,"bufferView":25},{"type":"VEC4","componentType":5120,"count":24629,"normalized":true,"byteOffset":0,"bufferView":26},{"type":"SCALAR","componentType":5123,"count":180384,"normalized":false,"byteOffset":664116,"bufferView":0},{"type":"VEC3","componentType":5120,"count":31865,"normalized":true,"byteOffset":0,"bufferView":27},{"type":"VEC4","componentType":5120,"count":31865,"normalized":true,"byteOffset":0,"bufferView":28},{"type":"SCALAR","componentType":5123,"count":57540,"normalized":false,"byteOffset":1024884,"bufferView":0},{"type":"VEC3","componentType":5120,"count":13350,"normalized":true,"byteOffset":0,"bufferView":29},{"type":"VEC4","componentType":5120,"count":13350,"normalized":true,"byteOffset":0,"bufferView":30},{"type":"SCALAR","componentType":5123,"count":251994,"normalized":false,"byteOffset":1139964,"bufferView":0},{"type":"VEC3","componentType":5120,"count":43135,"normalized":true,"byteOffset":0,"bufferView":31},{"type":"VEC4","componentType":5120,"count":43135,"normalized":true,"byteOffset":0,"bufferView":32},{"type":"SCALAR","componentType":5123,"count":24786,"normalized":false,"byteOffset":1643952,"bufferView":0},{"type":"VEC3","componentType":5120,"count":4523,"normalized":true,"byteOffset":0,"bufferView":33},{"type":"VEC4","componentType":5120,"count":4523,"normalized":true,"byteOffset":0,"bufferView":34},{"type":"VEC3","componentType":5122,"count":3213,"max":[32767,7900,1296],"min":[-32767,-7900,-1296],"normalized":true,"byteOffset":0,"bufferView":35},{"type":"VEC2","componentType":5123,"count":3213,"normalized":true,"byteOffset":0,"bufferView":36},{"type":"VEC3","componentType":5122,"count":7645,"max":[32767,7380,932],"min":[-32767,-7380,-932],"normalized":true,"byteOffset":0,"bufferView":37},{"type":"VEC2","componentType":5123,"count":7645,"normalized":true,"byteOffset":0,"bufferView":38},{"type":"VEC3","componentType":5122,"count":7745,"max":[32767,7384,992],"min":[-32767,-7384,-992],"normalized":true,"byteOffset":0,"bufferView":39},{"type":"VEC2","componentType":5123,"count":7745,"normalized":true,"byteOffset":0,"bufferView":40},{"type":"VEC3","componentType":5122,"count":1830,"max":[32767,3348,3232],"min":[-32767,-3348,-3232],"normalized":true,"byteOffset":0,"bufferView":41},{"type":"VEC2","componentType":5123,"count":1830,"normalized":true,"byteOffset":0,"bufferView":42},{"type":"VEC3","componentType":5122,"count":2531,"max":[32767,20082,4356],"min":[-32767,-20082,-4356],"normalized":true,"byteOffset":0,"bufferView":43},{"type":"VEC2","componentType":5123,"count":2531,"normalized":true,"byteOffset":0,"bufferView":44},{"type":"VEC3","componentType":5122,"count":4018,"max":[32767,4172,1660],"min":[-32767,-4172,-1660],"normalized":true,"byteOffset":0,"bufferView":45},{"type":"VEC2","componentType":5123,"count":4018,"normalized":true,"byteOffset":0,"bufferView":46},{"type":"VEC3","componentType":5122,"count":1452,"max":[24979,23722,32767],"min":[-24979,-23722,-32767],"normalized":true,"byteOffset":0,"bufferView":47},{"type":"VEC2","componentType":5123,"count":1452,"normalized":true,"byteOffset":0,"bufferView":48},{"type":"VEC3","componentType":5122,"count":5832,"max":[32507,32767,32463],"min":[-32507,-32767,-32463],"normalized":true,"byteOffset":0,"bufferView":49},{"type":"VEC2","componentType":5123,"count":5832,"normalized":true,"byteOffset":0,"bufferView":50},{"type":"VEC3","componentType":5122,"count":6467,"max":[20394,20394,32767],"min":[-20394,-20394,-32767],"normalized":true,"byteOffset":0,"bufferView":51},{"type":"VEC2","componentType":5123,"count":6467,"normalized":true,"byteOffset":0,"bufferView":52},{"type":"VEC3","componentType":5122,"count":603,"max":[7080,7080,32767],"min":[-7080,-7080,-32767],"normalized":true,"byteOffset":0,"bufferView":53},{"type":"VEC2","componentType":5123,"count":603,"normalized":true,"byteOffset":0,"bufferView":54},{"type":"VEC3","componentType":5122,"count":1672,"max":[32767,32767,900],"min":[-32767,-32767,-900],"normalized":true,"byteOffset":0,"bufferView":55},{"type":"VEC2","componentType":5123,"count":1672,"normalized":true,"byteOffset":0,"bufferView":56},{"type":"VEC3","componentType":5122,"count":1681,"max":[32767,32767,900],"min":[-32767,-32767,-900],"normalized":true,"byteOffset":0,"bufferView":57},{"type":"VEC2","componentType":5123,"count":1681,"normalized":true,"byteOffset":0,"bufferView":58},{"type":"VEC3","componentType":5122,"count":24629,"max":[32767,32767,22098],"min":[-32767,-32767,-22098],"normalized":true,"byteOffset":0,"bufferView":59},{"type":"VEC2","componentType":5123,"count":24629,"normalized":true,"byteOffset":0,"bufferView":60},{"type":"VEC3","componentType":5122,"count":31865,"max":[24506,32767,32683],"min":[-24506,-32767,-32683],"normalized":true,"byteOffset":0,"bufferView":61},{"type":"VEC2","componentType":5123,"count":31865,"normalized":true,"byteOffset":0,"bufferView":62},{"type":"VEC3","componentType":5122,"count":13350,"max":[32767,6348,2368],"min":[-32767,-6348,-2368],"normalized":true,"byteOffset":0,"bufferView":63},{"type":"VEC2","componentType":5123,"count":13350,"normalized":true,"byteOffset":0,"bufferView":64},{"type":"VEC3","componentType":5122,"count":43135,"max":[32767,6356,2300],"min":[-32767,-6356,-2300],"normalized":true,"byteOffset":0,"bufferView":65},{"type":"VEC2","componentType":5123,"count":43135,"normalized":true,"byteOffset":0,"bufferView":66},{"type":"VEC3","componentType":5122,"count":4523,"max":[12821,12813,32767],"min":[-12821,-12813,-32767],"normalized":true,"byteOffset":0,"bufferView":67},{"type":"VEC2","componentType":5123,"count":4523,"normalized":true,"byteOffset":0,"bufferView":68}],"bufferViews":[{"buffer":1,"byteOffset":0,"byteLength":1693524,"target":34963,"extensions":{"EXT_meshopt_compression":{"buffer":0,"byteOffset":4,"byteLength":324721,"mode":"TRIANGLES","byteStride":2,"count":846762}}},{"buffer":1,"byteOffset":1693524,"byteLength":12852,"target":34962,"byteStride":4,"extensions":{"EXT_meshopt_compression":{"buffer":0,"byteOffset":324728,"byteLength":5594,"mode":"ATTRIBUTES","filter":"OCTAHEDRAL","byteStride":4,"count":3213}}},{"buffer":1,"byteOffset":1706376,"byteLength":12852,"target":34962,"byteStride":4,"extensions":{"EXT_meshopt_compression":{"buffer":0,"byteOffset":330324,"byteLength":4706,"mode":"ATTRIBUTES","filter":"OCTAHEDRAL","byteStride":4,"count":3213}}},{"buffer":1,"byteOffset":1719228,"byteLength":30580,"target":34962,"byteStride":4,"extensions":{"EXT_meshopt_compression":{"buffer":0,"byteOffset":335032,"byteLength":14904,"mode":"ATTRIBUTES","filter":"OCTAHEDRAL","byteStride":4,"count":7645}}},{"buffer":1,"byteOffset":1749808,"byteLength":30580,"target":34962,"byteStride":4,"extensions":{"EXT_meshopt_compression":{"buffer":0,"byteOffset":349936,"byteLength":14520,"mode":"ATTRIBUTES","filter":"OCTAHEDRAL","byteStride":4,"count":7645}}},{"buffer":1,"byteOffset":1780388,"byteLength":30980,"target":34962,"byteStride":4,"extensions":{"EXT_meshopt_compression":{"buffer":0,"byteOffset":364456,"byteLength":13170,"mode":"ATTRIBUTES","filter":"OCTAHEDRAL","byteStride":4,"count":7745}}},{"buffer":1,"byteOffset":1811368,"byteLength":30980,"target":34962,"byteStride":4,"extensions":{"EXT_meshopt_compression":{"buffer":0,"byteOffset":377628,"byteLength":12214,"mode":"ATTRIBUTES","filter":"OCTAHEDRAL","byteStride":4,"count":7745}}},{"buffer":1,"byteOffset":1842348,"byteLength":7320,"target":34962,"byteStride":4,"extensions":{"EXT_meshopt_compression":{"buffer":0,"byteOffset":389844,"byteLength":3375,"mode":"ATTRIBUTES","filter":"OCTAHEDRAL","byteStride":4,"count":1830}}},{"buffer":1,"byteOffset":1849668,"byteLength":7320,"target":34962,"byteStride":4,"extensions":{"EXT_meshopt_compression":{"buffer":0,"byteOffset":393220,"byteLength":2902,"mode":"ATTRIBUTES","filter":"OCTAHEDRAL","byteStride":4,"count":1830}}},{"buffer":1,"byteOffset":1856988,"byteLength":10124,"target":34962,"byteStride":4,"extensions":{"EXT_meshopt_compression":{"buffer":0,"byteOffset":396124,"byteLength":5152,"mode":"ATTRIBUTES","filter":"OCTAHEDRAL","byteStride":4,"count":2531}}},{"buffer":1,"byteOffset":1867112,"byteLength":10124,"target":34962,"byteStride":4,"extensions":{"EXT_meshopt_compression":{"buffer":0,"byteOffset":401276,"byteLength":4496,"mode":"ATTRIBUTES","filter":"OCTAHEDRAL","byteStride":4,"count":2531}}},{"buffer":1,"byteOffset":1877236,"byteLength":16072,"target":34962,"byteStride":4,"extensions":{"EXT_meshopt_compression":{"buffer":0,"byteOffset":405772,"byteLength":7063,"mode":"ATTRIBUTES","filter":"OCTAHEDRAL","byteStride":4,"count":4018}}},{"buffer":1,"byteOffset":1893308,"byteLength":16072,"target":34962,"byteStride":4,"extensions":{"EXT_meshopt_compression":{"buffer":0,"byteOffset":412836,"byteLength":6621,"mode":"ATTRIBUTES","filter":"OCTAHEDRAL","byteStride":4,"count":4018}}},{"buffer":1,"byteOffset":1909380,"byteLength":5808,"target":34962,"byteStride":4,"extensions":{"EXT_meshopt_compression":{"buffer":0,"byteOffset":419460,"byteLength":2594,"mode":"ATTRIBUTES","filter":"OCTAHEDRAL","byteStride":4,"count":1452}}},{"buffer":1,"byteOffset":1915188,"byteLength":5808,"target":34962,"byteStride":4,"extensions":{"EXT_meshopt_compression":{"buffer":0,"byteOffset":422056,"byteLength":2131,"mode":"ATTRIBUTES","filter":"OCTAHEDRAL","byteStride":4,"count":1452}}},{"buffer":1,"byteOffset":1920996,"byteLength":23328,"target":34962,"byteStride":4,"extensions":{"EXT_meshopt_compression":{"buffer":0,"byteOffset":424188,"byteLength":10868,"mode":"ATTRIBUTES","filter":"OCTAHEDRAL","byteStride":4,"count":5832}}},{"buffer":1,"byteOffset":1944324,"byteLength":23328,"target":34962,"byteStride":4,"extensions":{"EXT_meshopt_compression":{"buffer":0,"byteOffset":435056,"byteLength":7621,"mode":"ATTRIBUTES","filter":"OCTAHEDRAL","byteStride":4,"count":5832}}},{"buffer":1,"byteOffset":1967652,"byteLength":25868,"target":34962,"byteStride":4,"extensions":{"EXT_meshopt_compression":{"buffer":0,"byteOffset":442680,"byteLength":11372,"mode":"ATTRIBUTES","filter":"OCTAHEDRAL","byteStride":4,"count":6467}}},{"buffer":1,"byteOffset":1993520,"byteLength":25868,"target":34962,"byteStride":4,"extensions":{"EXT_meshopt_compression":{"buffer":0,"byteOffset":454052,"byteLength":8604,"mode":"ATTRIBUTES","filter":"OCTAHEDRAL","byteStride":4,"count":6467}}},{"buffer":1,"byteOffset":2019388,"byteLength":2412,"target":34962,"byteStride":4,"extensions":{"EXT_meshopt_compression":{"buffer":0,"byteOffset":462656,"byteLength":1101,"mode":"ATTRIBUTES","filter":"OCTAHEDRAL","byteStride":4,"count":603}}},{"buffer":1,"byteOffset":2021800,"byteLength":2412,"target":34962,"byteStride":4,"extensions":{"EXT_meshopt_compression":{"buffer":0,"byteOffset":463760,"byteLength":875,"mode":"ATTRIBUTES","filter":"OCTAHEDRAL","byteStride":4,"count":603}}},{"buffer":1,"byteOffset":2024212,"byteLength":6688,"target":34962,"byteStride":4,"extensions":{"EXT_meshopt_compression":{"buffer":0,"byteOffset":464636,"byteLength":2879,"mode":"ATTRIBUTES","filter":"OCTAHEDRAL","byteStride":4,"count":1672}}},{"buffer":1,"byteOffset":2030900,"byteLength":6688,"target":34962,"byteStride":4,"extensions":{"EXT_meshopt_compression":{"buffer":0,"byteOffset":467516,"byteLength":2385,"mode":"ATTRIBUTES","filter":"OCTAHEDRAL","byteStride":4,"count":1672}}},{"buffer":1,"byteOffset":2037588,"byteLength":6724,"target":34962,"byteStride":4,"extensions":{"EXT_meshopt_compression":{"buffer":0,"byteOffset":469904,"byteLength":2920,"mode":"ATTRIBUTES","filter":"OCTAHEDRAL","byteStride":4,"count":1681}}},{"buffer":1,"byteOffset":2044312,"byteLength":6724,"target":34962,"byteStride":4,"extensions":{"EXT_meshopt_compression":{"buffer":0,"byteOffset":472824,"byteLength":2417,"mode":"ATTRIBUTES","filter":"OCTAHEDRAL","byteStride":4,"count":1681}}},{"buffer":1,"byteOffset":2051036,"byteLength":98516,"target":34962,"byteStride":4,"extensions":{"EXT_meshopt_compression":{"buffer":0,"byteOffset":475244,"byteLength":45787,"mode":"ATTRIBUTES","filter":"OCTAHEDRAL","byteStride":4,"count":24629}}},{"buffer":1,"byteOffset":2149552,"byteLength":98516,"target":34962,"byteStride":4,"extensions":{"EXT_meshopt_compression":{"buffer":0,"byteOffset":521032,"byteLength":41398,"mode":"ATTRIBUTES","filter":"OCTAHEDRAL","byteStride":4,"count":24629}}},{"buffer":1,"byteOffset":2248068,"byteLength":127460,"target":34962,"byteStride":4,"extensions":{"EXT_meshopt_compression":{"buffer":0,"byteOffset":562432,"byteLength":44017,"mode":"ATTRIBUTES","filter":"OCTAHEDRAL","byteStride":4,"count":31865}}},{"buffer":1,"byteOffset":2375528,"byteLength":127460,"target":34962,"byteStride":4,"extensions":{"EXT_meshopt_compression":{"buffer":0,"byteOffset":606452,"byteLength":39450,"mode":"ATTRIBUTES","filter":"OCTAHEDRAL","byteStride":4,"count":31865}}},{"buffer":1,"byteOffset":2502988,"byteLength":53400,"target":34962,"byteStride":4,"extensions":{"EXT_meshopt_compression":{"buffer":0,"byteOffset":645904,"byteLength":27419,"mode":"ATTRIBUTES","filter":"OCTAHEDRAL","byteStride":4,"count":13350}}},{"buffer":1,"byteOffset":2556388,"byteLength":53400,"target":34962,"byteStride":4,"extensions":{"EXT_meshopt_compression":{"buffer":0,"byteOffset":673324,"byteLength":27275,"mode":"ATTRIBUTES","filter":"OCTAHEDRAL","byteStride":4,"count":13350}}},{"buffer":1,"byteOffset":2609788,"byteLength":172540,"target":34962,"byteStride":4,"extensions":{"EXT_meshopt_compression":{"buffer":0,"byteOffset":700600,"byteLength":82353,"mode":"ATTRIBUTES","filter":"OCTAHEDRAL","byteStride":4,"count":43135}}},{"buffer":1,"byteOffset":2782328,"byteLength":172540,"target":34962,"byteStride":4,"extensions":{"EXT_meshopt_compression":{"buffer":0,"byteOffset":782956,"byteLength":79542,"mode":"ATTRIBUTES","filter":"OCTAHEDRAL","byteStride":4,"count":43135}}},{"buffer":1,"byteOffset":2954868,"byteLength":18092,"target":34962,"byteStride":4,"extensions":{"EXT_meshopt_compression":{"buffer":0,"byteOffset":862500,"byteLength":8141,"mode":"ATTRIBUTES","filter":"OCTAHEDRAL","byteStride":4,"count":4523}}},{"buffer":1,"byteOffset":2972960,"byteLength":18092,"target":34962,"byteStride":4,"extensions":{"EXT_meshopt_compression":{"buffer":0,"byteOffset":870644,"byteLength":6028,"mode":"ATTRIBUTES","filter":"OCTAHEDRAL","byteStride":4,"count":4523}}},{"buffer":1,"byteOffset":2991052,"byteLength":25704,"target":34962,"byteStride":8,"extensions":{"EXT_meshopt_compression":{"buffer":0,"byteOffset":876672,"byteLength":13477,"mode":"ATTRIBUTES","byteStride":8,"count":3213}}},{"buffer":1,"byteOffset":3016756,"byteLength":12852,"target":34962,"byteStride":4,"extensions":{"EXT_meshopt_compression":{"buffer":0,"byteOffset":890152,"byteLength":9424,"mode":"ATTRIBUTES","byteStride":4,"count":3213}}},{"buffer":1,"byteOffset":3029608,"byteLength":61160,"target":34962,"byteStride":8,"extensions":{"EXT_meshopt_compression":{"buffer":0,"byteOffset":899576,"byteLength":28520,"mode":"ATTRIBUTES","byteStride":8,"count":7645}}},{"buffer":1,"byteOffset":3090768,"byteLength":30580,"target":34962,"byteStride":4,"extensions":{"EXT_meshopt_compression":{"buffer":0,"byteOffset":928096,"byteLength":19005,"mode":"ATTRIBUTES","byteStride":4,"count":7645}}},{"buffer":1,"byteOffset":3121348,"byteLength":61960,"target":34962,"byteStride":8,"extensions":{"EXT_meshopt_compression":{"buffer":0,"byteOffset":947104,"byteLength":29514,"mode":"ATTRIBUTES","byteStride":8,"count":7745}}},{"buffer":1,"byteOffset":3183308,"byteLength":30980,"target":34962,"byteStride":4,"extensions":{"EXT_meshopt_compression":{"buffer":0,"byteOffset":976620,"byteLength":21045,"mode":"ATTRIBUTES","byteStride":4,"count":7745}}},{"buffer":1,"byteOffset":3214288,"byteLength":14640,"target":34962,"byteStride":8,"extensions":{"EXT_meshopt_compression":{"buffer":0,"byteOffset":997668,"byteLength":7269,"mode":"ATTRIBUTES","byteStride":8,"count":1830}}},{"buffer":1,"byteOffset":3228928,"byteLength":7320,"target":34962,"byteStride":4,"extensions":{"EXT_meshopt_compression":{"buffer":0,"byteOffset":1004940,"byteLength":4956,"mode":"ATTRIBUTES","byteStride":4,"count":1830}}},{"buffer":1,"byteOffset":3236248,"byteLength":20248,"target":34962,"byteStride":8,"extensions":{"EXT_meshopt_compression":{"buffer":0,"byteOffset":1009896,"byteLength":11049,"mode":"ATTRIBUTES","byteStride":8,"count":2531}}},{"buffer":1,"byteOffset":3256496,"byteLength":10124,"target":34962,"byteStride":4,"extensions":{"EXT_meshopt_compression":{"buffer":0,"byteOffset":1020948,"byteLength":7109,"mode":"ATTRIBUTES","byteStride":4,"count":2531}}},{"buffer":1,"byteOffset":3266620,"byteLength":32144,"target":34962,"byteStride":8,"extensions":{"EXT_meshopt_compression":{"buffer":0,"byteOffset":1028060,"byteLength":14570,"mode":"ATTRIBUTES","byteStride":8,"count":4018}}},{"buffer":1,"byteOffset":3298764,"byteLength":16072,"target":34962,"byteStride":4,"extensions":{"EXT_meshopt_compression":{"buffer":0,"byteOffset":1042632,"byteLength":10297,"mode":"ATTRIBUTES","byteStride":4,"count":4018}}},{"buffer":1,"byteOffset":3314836,"byteLength":11616,"target":34962,"byteStride":8,"extensions":{"EXT_meshopt_compression":{"buffer":0,"byteOffset":1052932,"byteLength":7168,"mode":"ATTRIBUTES","byteStride":8,"count":1452}}},{"buffer":1,"byteOffset":3326452,"byteLength":5808,"target":34962,"byteStride":4,"extensions":{"EXT_meshopt_compression":{"buffer":0,"byteOffset":1060100,"byteLength":4177,"mode":"ATTRIBUTES","byteStride":4,"count":1452}}},{"buffer":1,"byteOffset":3332260,"byteLength":46656,"target":34962,"byteStride":8,"extensions":{"EXT_meshopt_compression":{"buffer":0,"byteOffset":1064280,"byteLength":27831,"mode":"ATTRIBUTES","byteStride":8,"count":5832}}},{"buffer":1,"byteOffset":3378916,"byteLength":23328,"target":34962,"byteStride":4,"extensions":{"EXT_meshopt_compression":{"buffer":0,"byteOffset":1092112,"byteLength":15017,"mode":"ATTRIBUTES","byteStride":4,"count":5832}}},{"buffer":1,"byteOffset":3402244,"byteLength":51736,"target":34962,"byteStride":8,"extensions":{"EXT_meshopt_compression":{"buffer":0,"byteOffset":1107132,"byteLength":29192,"mode":"ATTRIBUTES","byteStride":8,"count":6467}}},{"buffer":1,"byteOffset":3453980,"byteLength":25868,"target":34962,"byteStride":4,"extensions":{"EXT_meshopt_compression":{"buffer":0,"byteOffset":1136324,"byteLength":17944,"mode":"ATTRIBUTES","byteStride":4,"count":6467}}},{"buffer":1,"byteOffset":3479848,"byteLength":4824,"target":34962,"byteStride":8,"extensions":{"EXT_meshopt_compression":{"buffer":0,"byteOffset":1154268,"byteLength":2586,"mode":"ATTRIBUTES","byteStride":8,"count":603}}},{"buffer":1,"byteOffset":3484672,"byteLength":2412,"target":34962,"byteStride":4,"extensions":{"EXT_meshopt_compression":{"buffer":0,"byteOffset":1156856,"byteLength":1669,"mode":"ATTRIBUTES","byteStride":4,"count":603}}},{"buffer":1,"byteOffset":3487084,"byteLength":13376,"target":34962,"byteStride":8,"extensions":{"EXT_meshopt_compression":{"buffer":0,"byteOffset":1158528,"byteLength":7706,"mode":"ATTRIBUTES","byteStride":8,"count":1672}}},{"buffer":1,"byteOffset":3500460,"byteLength":6688,"target":34962,"byteStride":4,"extensions":{"EXT_meshopt_compression":{"buffer":0,"byteOffset":1166236,"byteLength":4718,"mode":"ATTRIBUTES","byteStride":4,"count":1672}}},{"buffer":1,"byteOffset":3507148,"byteLength":13448,"target":34962,"byteStride":8,"extensions":{"EXT_meshopt_compression":{"buffer":0,"byteOffset":1170956,"byteLength":7884,"mode":"ATTRIBUTES","byteStride":8,"count":1681}}},{"buffer":1,"byteOffset":3520596,"byteLength":6724,"target":34962,"byteStride":4,"extensions":{"EXT_meshopt_compression":{"buffer":0,"byteOffset":1178840,"byteLength":4815,"mode":"ATTRIBUTES","byteStride":4,"count":1681}}},{"buffer":1,"byteOffset":3527320,"byteLength":197032,"target":34962,"byteStride":8,"extensions":{"EXT_meshopt_compression":{"buffer":0,"byteOffset":1183656,"byteLength":108086,"mode":"ATTRIBUTES","byteStride":8,"count":24629}}},{"buffer":1,"byteOffset":3724352,"byteLength":98516,"target":34962,"byteStride":4,"extensions":{"EXT_meshopt_compression":{"buffer":0,"byteOffset":1291744,"byteLength":69285,"mode":"ATTRIBUTES","byteStride":4,"count":24629}}},{"buffer":1,"byteOffset":3822868,"byteLength":254920,"target":34962,"byteStride":8,"extensions":{"EXT_meshopt_compression":{"buffer":0,"byteOffset":1361032,"byteLength":135651,"mode":"ATTRIBUTES","byteStride":8,"count":31865}}},{"buffer":1,"byteOffset":4077788,"byteLength":127460,"target":34962,"byteStride":4,"extensions":{"EXT_meshopt_compression":{"buffer":0,"byteOffset":1496684,"byteLength":108258,"mode":"ATTRIBUTES","byteStride":4,"count":31865}}},{"buffer":1,"byteOffset":4205248,"byteLength":106800,"target":34962,"byteStride":8,"extensions":{"EXT_meshopt_compression":{"buffer":0,"byteOffset":1604944,"byteLength":51089,"mode":"ATTRIBUTES","byteStride":8,"count":13350}}},{"buffer":1,"byteOffset":4312048,"byteLength":53400,"target":34962,"byteStride":4,"extensions":{"EXT_meshopt_compression":{"buffer":0,"byteOffset":1656036,"byteLength":43106,"mode":"ATTRIBUTES","byteStride":4,"count":13350}}},{"buffer":1,"byteOffset":4365448,"byteLength":345080,"target":34962,"byteStride":8,"extensions":{"EXT_meshopt_compression":{"buffer":0,"byteOffset":1699144,"byteLength":146465,"mode":"ATTRIBUTES","byteStride":8,"count":43135}}},{"buffer":1,"byteOffset":4710528,"byteLength":172540,"target":34962,"byteStride":4,"extensions":{"EXT_meshopt_compression":{"buffer":0,"byteOffset":1845612,"byteLength":125875,"mode":"ATTRIBUTES","byteStride":4,"count":43135}}},{"buffer":1,"byteOffset":4883068,"byteLength":36184,"target":34962,"byteStride":8,"extensions":{"EXT_meshopt_compression":{"buffer":0,"byteOffset":1971488,"byteLength":19915,"mode":"ATTRIBUTES","byteStride":8,"count":4523}}},{"buffer":1,"byteOffset":4919252,"byteLength":18092,"target":34962,"byteStride":4,"extensions":{"EXT_meshopt_compression":{"buffer":0,"byteOffset":1991404,"byteLength":13276,"mode":"ATTRIBUTES","byteStride":4,"count":4523}}}],"samplers":[{"magFilter":9729,"minFilter":9985,"wrapS":10497,"wrapT":10497}],"textures":[{"sampler":0,"extensions":{"EXT_texture_webp":{"source":0}}},{"sampler":0,"extensions":{"EXT_texture_webp":{"source":2}}},{"sampler":0,"extensions":{"EXT_texture_webp":{"source":1}}},{"sampler":0,"extensions":{"EXT_texture_webp":{"source":3}}},{"sampler":0,"extensions":{"EXT_texture_webp":{"source":5}}},{"sampler":0,"extensions":{"EXT_texture_webp":{"source":4}}},{"sampler":0,"extensions":{"EXT_texture_webp":{"source":6}}},{"sampler":0,"extensions":{"EXT_texture_webp":{"source":8}}},{"sampler":0,"extensions":{"EXT_texture_webp":{"source":7}}},{"sampler":0,"extensions":{"EXT_texture_webp":{"source":9}}},{"sampler":0,"extensions":{"EXT_texture_webp":{"source":11}}},{"sampler":0,"extensions":{"EXT_texture_webp":{"source":10}}},{"sampler":0,"extensions":{"EXT_texture_webp":{"source":12}}},{"sampler":0,"extensions":{"EXT_texture_webp":{"source":14}}},{"sampler":0,"extensions":{"EXT_texture_webp":{"source":13}}},{"sampler":0,"extensions":{"EXT_texture_webp":{"source":15}}},{"sampler":0,"extensions":{"EXT_texture_webp":{"source":17}}},{"sampler":0,"extensions":{"EXT_texture_webp":{"source":16}}},{"sampler":0,"extensions":{"EXT_texture_webp":{"source":18}}},{"sampler":0,"extensions":{"EXT_texture_webp":{"source":20}}},{"sampler":0,"extensions":{"EXT_texture_webp":{"source":19}}},{"sampler":0,"extensions":{"EXT_texture_webp":{"source":21}}},{"sampler":0,"extensions":{"EXT_texture_webp":{"source":23}}},{"sampler":0,"extensions":{"EXT_texture_webp":{"source":22}}},{"sampler":0,"extensions":{"EXT_texture_webp":{"source":24}}},{"sampler":0,"extensions":{"EXT_texture_webp":{"source":26}}},{"sampler":0,"extensions":{"EXT_texture_webp":{"source":25}}},{"sampler":0,"extensions":{"EXT_texture_webp":{"source":27}}},{"sampler":0,"extensions":{"EXT_texture_webp":{"source":29}}},{"sampler":0,"extensions":{"EXT_texture_webp":{"source":28}}},{"sampler":0,"extensions":{"EXT_texture_webp":{"source":30}}},{"sampler":0,"extensions":{"EXT_texture_webp":{"source":32}}},{"sampler":0,"extensions":{"EXT_texture_webp":{"source":31}}},{"sampler":0,"extensions":{"EXT_texture_webp":{"source":33}}},{"sampler":0,"extensions":{"EXT_texture_webp":{"source":35}}},{"sampler":0,"extensions":{"EXT_texture_webp":{"source":34}}},{"sampler":0,"extensions":{"EXT_texture_webp":{"source":37}}},{"sampler":0,"extensions":{"EXT_texture_webp":{"source":36}}},{"sampler":0,"extensions":{"EXT_texture_webp":{"source":38}}},{"sampler":0,"extensions":{"EXT_texture_webp":{"source":40}}},{"sampler":0,"extensions":{"EXT_texture_webp":{"source":39}}},{"sampler":0,"extensions":{"EXT_texture_webp":{"source":42}}},{"sampler":0,"extensions":{"EXT_texture_webp":{"source":41}}},{"sampler":0,"extensions":{"EXT_texture_webp":{"source":43}}},{"sampler":0,"extensions":{"EXT_texture_webp":{"source":45}}},{"sampler":0,"extensions":{"EXT_texture_webp":{"source":44}}},{"sampler":0,"extensions":{"EXT_texture_webp":{"source":46}}},{"sampler":0,"extensions":{"EXT_texture_webp":{"source":48}}},{"sampler":0,"extensions":{"EXT_texture_webp":{"source":47}}}],"images":[{"mimeType":"image/webp","uri":"texture-0.webp"},{"mimeType":"image/webp","uri":"texture-1.webp"},{"mimeType":"image/webp","uri":"texture-2.webp"},{"mimeType":"image/webp","uri":"texture-3.webp"},{"mimeType":"image/webp","uri":"texture-4.webp"},{"mimeType":"image/webp","uri":"texture-5.webp"},{"mimeType":"image/webp","uri":"texture-6.webp"},{"mimeType":"image/webp","uri":"texture-7.webp"},{"mimeType":"image/webp","uri":"texture-8.webp"},{"mimeType":"image/webp","uri":"texture-9.webp"},{"mimeType":"image/webp","uri":"texture-10.webp"},{"mimeType":"image/webp","uri":"texture-11.webp"},{"mimeType":"image/webp","uri":"texture-12.webp"},{"mimeType":"image/webp","uri":"texture-13.webp"},{"mimeType":"image/webp","uri":"texture-14.webp"},{"mimeType":"image/webp","uri":"texture-15.webp"},{"mimeType":"image/webp","uri":"texture-16.webp"},{"mimeType":"image/webp","uri":"texture-17.webp"},{"mimeType":"image/webp","uri":"texture-18.webp"},{"mimeType":"image/webp","uri":"texture-19.webp"},{"mimeType":"image/webp","uri":"texture-20.webp"},{"mimeType":"image/webp","uri":"texture-21.webp"},{"mimeType":"image/webp","uri":"texture-22.webp"},{"mimeType":"image/webp","uri":"texture-23.webp"},{"mimeType":"image/webp","uri":"texture-24.webp"},{"mimeType":"image/webp","uri":"texture-25.webp"},{"mimeType":"image/webp","uri":"texture-26.webp"},{"mimeType":"image/webp","uri":"texture-27.webp"},{"mimeType":"image/webp","uri":"texture-28.webp"},{"mimeType":"image/webp","uri":"texture-29.webp"},{"mimeType":"image/webp","uri":"texture-30.webp"},{"mimeType":"image/webp","uri":"texture-31.webp"},{"mimeType":"image/webp","uri":"texture-32.webp"},{"mimeType":"image/webp","uri":"texture-33.webp"},{"mimeType":"image/webp","uri":"texture-34.webp"},{"mimeType":"image/webp","uri":"texture-35.webp"},{"mimeType":"image/webp","uri":"texture-36.webp"},{"mimeType":"image/webp","uri":"texture-37.webp"},{"mimeType":"image/webp","uri":"texture-38.webp"},{"mimeType":"image/webp","uri":"texture-39.webp"},{"mimeType":"image/webp","uri":"texture-40.webp"},{"mimeType":"image/webp","uri":"texture-41.webp"},{"mimeType":"image/webp","uri":"texture-42.webp"},{"mimeType":"image/webp","uri":"texture-43.webp"},{"mimeType":"image/webp","uri":"texture-44.webp"},{"mimeType":"image/webp","uri":"texture-45.webp"},{"mimeType":"image/webp","uri":"texture-46.webp"},{"mimeType":"image/webp","uri":"texture-47.webp"},{"mimeType":"image/webp","uri":"texture-48.webp"}],"buffers":[{"uri":"geometry.bin","byteLength":2004680},{"byteLength":4937344,"extensions":{"EXT_meshopt_compression":{"fallback":true}}}],"materials":[{"name":"MAT_BEARING","pbrMetallicRoughness":{"baseColorTexture":{"index":0},"metallicRoughnessTexture":{"index":2}},"normalTexture":{"index":1},"occlusionTexture":{"index":2}},{"name":"MAT_BEARING_SPHERE","pbrMetallicRoughness":{"baseColorTexture":{"index":3},"metallicRoughnessTexture":{"index":5}},"normalTexture":{"index":4},"occlusionTexture":{"index":5}},{"name":"MAT_BLADE","pbrMetallicRoughness":{"baseColorTexture":{"index":6},"metallicRoughnessTexture":{"index":8}},"normalTexture":{"index":7},"occlusionTexture":{"index":8}},{"name":"MAT_BREAKER","pbrMetallicRoughness":{"baseColorTexture":{"index":9},"metallicRoughnessTexture":{"index":11}},"normalTexture":{"index":10},"occlusionTexture":{"index":11}},{"name":"MAT_CLIP","pbrMetallicRoughness":{"baseColorTexture":{"index":12},"metallicRoughnessTexture":{"index":14}},"normalTexture":{"index":13},"occlusionTexture":{"index":14}},{"name":"MAT_END","pbrMetallicRoughness":{"baseColorTexture":{"index":15},"metallicRoughnessTexture":{"index":17}},"normalTexture":{"index":16},"occlusionTexture":{"index":17}},{"name":"MAT_EXT_DX","pbrMetallicRoughness":{"baseColorTexture":{"index":18},"metallicRoughnessTexture":{"index":20}},"normalTexture":{"index":19},"occlusionTexture":{"index":20}},{"name":"MAT_EXT_SX","pbrMetallicRoughness":{"baseColorTexture":{"index":21},"metallicRoughnessTexture":{"index":23}},"normalTexture":{"index":22},"occlusionTexture":{"index":23}},{"name":"MAT_INT_Front","pbrMetallicRoughness":{"baseColorTexture":{"index":24},"metallicRoughnessTexture":{"index":26}},"normalTexture":{"index":25},"occlusionTexture":{"index":26}},{"name":"MAT_INT_Rear","pbrMetallicRoughness":{"baseColorTexture":{"index":27},"metallicRoughnessTexture":{"index":29}},"normalTexture":{"index":28},"occlusionTexture":{"index":29}},{"name":"MAT_JOINTS","pbrMetallicRoughness":{"baseColorTexture":{"index":30},"metallicRoughnessTexture":{"index":32}},"normalTexture":{"index":31},"occlusionTexture":{"index":32}},{"name":"MAT_PIN","pbrMetallicRoughness":{"baseColorTexture":{"index":33},"metallicRoughnessTexture":{"index":35}},"normalTexture":{"index":34},"occlusionTexture":{"index":35}},{"name":"MAT_PIVOT","pbrMetallicRoughness":{"metallicRoughnessTexture":{"index":37}},"normalTexture":{"index":36},"occlusionTexture":{"index":37}},{"name":"MAT_SCREW_CLIP","pbrMetallicRoughness":{"baseColorTexture":{"index":38},"metallicRoughnessTexture":{"index":40}},"normalTexture":{"index":39},"occlusionTexture":{"index":40}},{"name":"MAT_SCREWS","pbrMetallicRoughness":{"metallicRoughnessTexture":{"index":42}},"normalTexture":{"index":41},"occlusionTexture":{"index":42}},{"name":"MAT_THRUST_DX","pbrMetallicRoughness":{"baseColorTexture":{"index":43},"metallicRoughnessTexture":{"index":45}},"normalTexture":{"index":44},"occlusionTexture":{"index":45}},{"name":"MAT_THRUST_SX","pbrMetallicRoughness":{"baseColorTexture":{"index":46},"metallicRoughnessTexture":{"index":48}},"normalTexture":{"index":47},"occlusionTexture":{"index":48}}],"meshes":[{"name":"BLADE","primitives":[{"attributes":{"NORMAL":1,"TANGENT":2,"POSITION":51,"TEXCOORD_0":52},"mode":4,"material":2,"indices":0}]},{"name":"EXT_SX","primitives":[{"attributes":{"NORMAL":4,"TANGENT":5,"POSITION":53,"TEXCOORD_0":54},"mode":4,"material":7,"indices":3}]},{"name":"EXT_DX","primitives":[{"attributes":{"NORMAL":7,"TANGENT":8,"POSITION":55,"TEXCOORD_0":56},"mode":4,"material":6,"indices":6}]},{"name":"INT_FRONT","primitives":[{"attributes":{"NORMAL":10,"TANGENT":11,"POSITION":57,"TEXCOORD_0":58},"mode":4,"material":8,"indices":9}]},{"name":"INT_REAR","primitives":[{"attributes":{"NORMAL":13,"TANGENT":14,"POSITION":59,"TEXCOORD_0":60},"mode":4,"material":9,"indices":12}]},{"name":"CLIP","primitives":[{"attributes":{"NORMAL":16,"TANGENT":17,"POSITION":61,"TEXCOORD_0":62},"mode":4,"material":4,"indices":15}]},{"name":"END","primitives":[{"attributes":{"NORMAL":19,"TANGENT":20,"POSITION":63,"TEXCOORD_0":64},"mode":4,"material":5,"indices":18}]},{"name":"BREAKER","primitives":[{"attributes":{"NORMAL":22,"TANGENT":23,"POSITION":65,"TEXCOORD_0":66},"mode":4,"material":3,"indices":21}]},{"name":"PIVOT","primitives":[{"attributes":{"NORMAL":25,"TANGENT":26,"POSITION":67,"TEXCOORD_0":68},"mode":4,"material":12,"indices":24}]},{"name":"PIN","primitives":[{"attributes":{"NORMAL":28,"TANGENT":29,"POSITION":69,"TEXCOORD_0":70},"mode":4,"material":11,"indices":27}]},{"name":"THRUST_DX","primitives":[{"attributes":{"NORMAL":31,"TANGENT":32,"POSITION":71,"TEXCOORD_0":72},"mode":4,"material":15,"indices":30}]},{"name":"THRUST_SX","primitives":[{"attributes":{"NORMAL":34,"TANGENT":35,"POSITION":73,"TEXCOORD_0":74},"mode":4,"material":16,"indices":33}]},{"name":"BEARING_DX","primitives":[{"attributes":{"NORMAL":37,"TANGENT":38,"POSITION":75,"TEXCOORD_0":76},"mode":4,"material":0,"indices":36}]},{"name":"Sphere1","primitives":[{"attributes":{"NORMAL":40,"TANGENT":41,"POSITION":77,"TEXCOORD_0":78},"mode":4,"material":1,"indices":39}]},{"name":"SCREWS_UV1","primitives":[{"attributes":{"NORMAL":43,"TANGENT":44,"POSITION":79,"TEXCOORD_0":80},"mode":4,"material":14,"indices":42}]},{"name":"JOINTS_UV1","primitives":[{"attributes":{"NORMAL":46,"TANGENT":47,"POSITION":81,"TEXCOORD_0":82},"mode":4,"material":10,"indices":45}]},{"name":"SCREWS_CLIP","primitives":[{"attributes":{"NORMAL":49,"TANGENT":50,"POSITION":83,"TEXCOORD_0":84},"mode":4,"material":13,"indices":48}]}],"nodes":[{"name":"BLADE","translation":[-0.38474304292925326,0.22984673463150693,0],"scale":[0.48067052720478454,0.48067052720478454,0.48067052720478454],"mesh":0,"extras":{"knifePart":1,"movingBlade":true}},{"name":"EXT_SX","translation":[0.41820014972537395,0.22978976212911825,0.03471453469884688],"scale":[0.5145509890939816,0.5145509890939816,0.5145509890939816],"mesh":1,"extras":{"knifePart":2,"movingBlade":false}},{"name":"EXT_DX","translation":[0.41822565097602465,0.22978777848658447,-0.03416384084156509],"scale":[0.514373968071327,0.514373968071327,0.514373968071327],"mesh":2,"extras":{"knifePart":2,"movingBlade":false}},{"name":"INT_FRONT","translation":[0.2510702911525153,0.32565748440494774,-2.5033950246111655e-08],"scale":[0.19619833746109136,0.19619833746109136,0.19619833746109136],"mesh":3,"extras":{"knifePart":0,"movingBlade":false}},{"name":"INT_REAR","translation":[0.787003003649346,0.20343540690611125,1.6630291567065744e-05],"scale":[0.14544150981065226,0.14544150981065226,0.14544150981065226],"mesh":4,"extras":{"knifePart":0,"movingBlade":false}},{"name":"CLIP","translation":[0.6952122532901405,0.14893558646137436,-0.04939812192176007],"scale":[0.2294769045082425,0.2294769045082425,0.2294769045082425],"mesh":5,"extras":{"knifePart":0,"movingBlade":false}},{"name":"END","translation":[0.8992272748225786,0.14588270338141826,8.773803514827703e-06],"scale":[0.04423749824827538,0.04423749824827538,0.04423749824827538],"mesh":6,"extras":{"knifePart":0,"movingBlade":false}},{"name":"BREAKER","translation":[0.9040270794027946,0.14230940023863156,0.00012243985856086323],"scale":[0.02636205137456837,0.02636205137456837,0.02636205137456837],"mesh":7,"extras":{"knifePart":0,"movingBlade":false}},{"name":"PIVOT","translation":[-0.000228017563491667,0.22978304349370934,2.3841857377249194e-09],"scale":[0.05111042623720107,0.05111042623720107,0.05111042623720107],"mesh":8,"extras":{"knifePart":0,"movingBlade":false}},{"name":"PIN","translation":[-0.00013798713375656743,0.2861633999758197,7.95364362105033e-06],"scale":[0.03480728786869446,0.03480728786869446,0.03480728786869446],"mesh":9,"extras":{"knifePart":0,"movingBlade":false}},{"name":"THRUST_DX","translation":[-0.0002500033322720973,0.22977937184767325,-0.03352044149815047],"rotation":[0,1,0,0],"scale":[-0.04719639434226463,0.04719639434226463,0.04719639434226463],"mesh":10,"extras":{"knifePart":0,"movingBlade":false}},{"name":"THRUST_SX","translation":[-0.0002500009480863596,0.22977937184767325,0.033520437921871864],"scale":[0.04719639672645037,0.04719639672645037,0.04719639672645037],"mesh":11,"extras":{"knifePart":0,"movingBlade":false}},{"name":"BEARING_DX","translation":[-0.00022799729791289633,0.2297829958099946,4.76837147544984e-09],"scale":[0.04749132050220694,0.04749132050220694,0.04749132050220694],"mesh":12,"extras":{"knifePart":0,"movingBlade":false}},{"name":"Sphere1","translation":[-0.00022798180850997635,0.2297830530304523,-3.6024125002476204e-09],"rotation":[0,-0.7071067690849294,0,0.7071067932881654],"scale":[0.04504085285929047,0.04504085440097327,0.04504085285929047],"mesh":13,"extras":{"knifePart":0,"movingBlade":false}},{"name":"SCREWS_UV1","translation":[0.4873551037116061,0.2687012516997473,-0.006535553786108927],"scale":[0.3621662774197842,0.3621662774197842,0.3621662774197842],"mesh":14,"extras":{"knifePart":0,"movingBlade":false}},{"name":"JOINTS_UV1","translation":[0.4873668752454171,0.26870405550217485,0.005319746613806186],"scale":[0.3622594227881856,0.3622594227881856,0.3622594227881856],"mesh":15,"extras":{"knifePart":0,"movingBlade":false}},{"name":"SCREWS_CLIP","translation":[0.8346832088824384,0.15051130435217971,-0.03810041342451242],"scale":[0.01808882196049044,0.01808882196049044,0.01808882196049044],"mesh":16,"extras":{"knifePart":0,"movingBlade":false}}],"scenes":[{"name":"Scene","nodes":[0,1,2,3,4,5,6,7,8,9,10,11,12,13,14,15,16],"extras":{"mementoRig":{"pivot":[-0.000228017563491667,0.22978304349370934,2.3841857377249194e-09],"axis":[0,0,1],"closedAngle":3.141592653589793}}}],"scene":0,"extensionsUsed":["EXT_meshopt_compression","EXT_texture_webp","KHR_mesh_quantization"],"extensionsRequired":["EXT_meshopt_compression","EXT_texture_webp","KHR_mesh_quantization"]}