{"asset":{"version":"2.0","generator":"Memento calibrated collection 34"},"scene":0,"scenes":[{"nodes":[0,1,2,3,4,5,6,7,8,9,10,11,12],"extras":{"mementoRig":{"version":34,"length":4.5,"pivot":[0.09573450594127052,0.10163609469930769,0.12787868477682596],"axis":[0,0,1],"closedAngle":2.9898069851573776,"sourceFile":"pocket_knife.glb"}}}],"nodes":[{"name":"pocket-blade-4-0","mesh":0,"extras":{"knifePart":1,"movingBlade":true}},{"name":"pocket-blade-6-0","mesh":1,"extras":{"knifePart":1,"movingBlade":true}},{"name":"pocket-body-9-0","mesh":2,"extras":{"knifePart":2,"movingBlade":false}},{"name":"pocket-body-10-0","mesh":3,"extras":{"knifePart":0,"movingBlade":false}},{"name":"pocket-body-12-0","mesh":4,"extras":{"knifePart":0,"movingBlade":false}},{"name":"pocket-body-14-0","mesh":5,"extras":{"knifePart":0,"movingBlade":false}},{"name":"pocket-body-16-0","mesh":6,"extras":{"knifePart":0,"movingBlade":false}},{"name":"pocket-body-18-0","mesh":7,"extras":{"knifePart":0,"movingBlade":false}},{"name":"pocket-body-20-0","mesh":8,"extras":{"knifePart":0,"movingBlade":false}},{"name":"pocket-body-22-0","mesh":9,"extras":{"knifePart":0,"movingBlade":false}},{"name":"pocket-body-24-0","mesh":10,"extras":{"knifePart":2,"movingBlade":false}},{"name":"pocket-body-26-0","mesh":11,"extras":{"knifePart":0,"movingBlade":false}},{"name":"pocket-body-28-0","mesh":12,"extras":{"knifePart":2,"movingBlade":false}}],"meshes":[{"name":"pocket-blade-4-0","primitives":[{"attributes":{"NORMAL":0,"POSITION":1,"TEXCOORD_0":2},"material":1,"indices":3}]},{"name":"pocket-blade-6-0","primitives":[{"attributes":{"NORMAL":4,"POSITION":5,"TEXCOORD_0":6,"TEXCOORD_1":7},"material":2,"indices":8}]},{"name":"pocket-body-9-0","primitives":[{"attributes":{"NORMAL":9,"POSITION":10,"TEXCOORD_0":11},"material":3,"indices":12}]},{"name":"pocket-body-10-0","primitives":[{"attributes":{"NORMAL":13,"POSITION":14,"TEXCOORD_0":15},"material":4,"indices":16}]},{"name":"pocket-body-12-0","primitives":[{"attributes":{"NORMAL":17,"POSITION":18,"TEXCOORD_0":19},"material":0,"indices":20}]},{"name":"pocket-body-14-0","primitives":[{"attributes":{"NORMAL":21,"POSITION":22,"TEXCOORD_0":23},"material":5,"indices":24}]},{"name":"pocket-body-16-0","primitives":[{"attributes":{"NORMAL":25,"POSITION":26,"TEXCOORD_0":27},"material":4,"indices":28}]},{"name":"pocket-body-18-0","primitives":[{"attributes":{"NORMAL":29,"POSITION":30,"TEXCOORD_0":31},"material":4,"indices":32}]},{"name":"pocket-body-20-0","primitives":[{"attributes":{"NORMAL":33,"POSITION":34,"TEXCOORD_0":35},"material":4,"indices":36}]},{"name":"pocket-body-22-0","primitives":[{"attributes":{"NORMAL":37,"POSITION":38,"TEXCOORD_0":39},"material":4,"indices":40}]},{"name":"pocket-body-24-0","primitives":[{"attributes":{"NORMAL":41,"POSITION":42,"TANGENT":43,"TEXCOORD_0":44,"TEXCOORD_1":45},"material":6,"indices":46}]},{"name":"pocket-body-26-0","primitives":[{"attributes":{"NORMAL":47,"POSITION":48,"TEXCOORD_0":49},"material":4,"indices":50}]},{"name":"pocket-body-28-0","primitives":[{"attributes":{"NORMAL":51,"POSITION":52,"TANGENT":53,"TEXCOORD_0":54,"TEXCOORD_1":55,"TEXCOORD_2":56,"TEXCOORD_3":57},"material":7,"indices":58}]}],"accessors":[{"componentType":5126,"count":3417,"type":"VEC3","bufferView":0,"min":[-1.0,-0.9997726082801819,-0.9999752640724182],"max":[1.0,0.9990899562835693,0.9999752640724182]},{"componentType":5126,"count":3417,"type":"VEC3","bufferView":1,"min":[-0.41526469588279724,-0.03034781850874424,-0.03677145764231682],"max":[0.3958236575126648,2.25,0.03677147254347801]},{"componentType":5126,"count":3417,"type":"VEC2","bufferView":2},{"componentType":5125,"count":11208,"type":"SCALAR","bufferView":3},{"componentType":5126,"count":4,"type":"VEC3","bufferView":4,"min":[-0.009011008776724339,0.007782990112900734,0.9999290704727173],"max":[-0.003505182219669223,0.007799857296049595,0.9999635219573975]},{"componentType":5126,"count":4,"type":"VEC3","bufferView":5,"min":[0.09365513920783997,0.9393166303634644,0.02724379673600197],"max":[0.1680174469947815,1.2085390090942383,0.029622618108987808]},{"componentType":5126,"count":4,"type":"VEC2","bufferView":6},{"componentType":5126,"count":4,"type":"VEC2","bufferView":7},{"componentType":5125,"count":6,"type":"SCALAR","bufferView":8},{"componentType":5126,"count":7107,"type":"VEC3","bufferView":9,"min":[-1.0,-1.0,-1.0],"max":[1.0,1.0,1.0]},{"componentType":5126,"count":7107,"type":"VEC3","bufferView":10,"min":[-0.23050719499588013,-2.1798479557037354,-0.12787866592407227],"max":[0.41526469588279724,0.34269818663597107,0.12787868082523346]},{"componentType":5126,"count":7107,"type":"VEC2","bufferView":11},{"componentType":5125,"count":19464,"type":"SCALAR","bufferView":12},{"componentType":5126,"count":23,"type":"VEC3","bufferView":13,"min":[-0.5604644417762756,0.14106164872646332,-0.9006057977676392],"max":[0.7020003199577332,0.8635517358779907,0.900607168674469]},{"componentType":5126,"count":23,"type":"VEC3","bufferView":14,"min":[0.07858508825302124,-1.917585849761963,-0.012246618047356606],"max":[0.35563966631889343,-1.7867027521133423,0.014425747096538544]},{"componentType":5126,"count":23,"type":"VEC2","bufferView":15},{"componentType":5125,"count":42,"type":"SCALAR","bufferView":16},{"componentType":5126,"count":66,"type":"VEC3","bufferView":17,"min":[-1.0,-1.0,-1.7156034459731018e-07],"max":[1.0,1.0,1.715603588081649e-07]},{"componentType":5126,"count":66,"type":"VEC3","bufferView":18,"min":[0.03313007578253746,0.037026841193437576,-0.051759328693151474],"max":[0.15833882987499237,0.1622355729341507,0.051759351044893265]},{"componentType":5126,"count":66,"type":"VEC2","bufferView":19},{"componentType":5125,"count":192,"type":"SCALAR","bufferView":20},{"componentType":5126,"count":198,"type":"VEC3","bufferView":21,"min":[-0.9996525645256042,-1.0,-0.9997393488883972],"max":[0.9996525645256042,1.0,0.999739408493042]},{"componentType":5126,"count":198,"type":"VEC3","bufferView":22,"min":[0.012469092383980751,-2.25,-0.06220634654164314],"max":[0.15493692457675934,-2.178673028945923,0.06220635026693344]},{"componentType":5126,"count":198,"type":"VEC2","bufferView":23},{"componentType":5125,"count":372,"type":"SCALAR","bufferView":24},{"componentType":5126,"count":390,"type":"VEC3","bufferView":25,"min":[-1.0,-1.0,-1.0],"max":[1.0,1.0,1.0]},{"componentType":5126,"count":390,"type":"VEC3","bufferView":26,"min":[0.14277034997940063,-2.1261520385742188,-0.0975225567817688],"max":[0.2229766547679901,-2.045945644378662,0.09752257168292999]},{"componentType":5126,"count":390,"type":"VEC2","bufferView":27},{"componentType":5125,"count":948,"type":"SCALAR","bufferView":28},{"componentType":5126,"count":390,"type":"VEC3","bufferView":29,"min":[-1.0,-1.0,-1.0],"max":[1.0,1.0,1.0]},{"componentType":5126,"count":390,"type":"VEC3","bufferView":30,"min":[-0.13175246119499207,-2.1170692443847656,-0.09752263128757477],"max":[-0.05154616758227348,-2.036862850189209,0.09752264618873596]},{"componentType":5126,"count":390,"type":"VEC2","bufferView":31},{"componentType":5125,"count":948,"type":"SCALAR","bufferView":32},{"componentType":5126,"count":390,"type":"VEC3","bufferView":33,"min":[-1.0,-1.0,-1.0],"max":[1.0,1.0,1.0]},{"componentType":5126,"count":390,"type":"VEC3","bufferView":34,"min":[0.2803337574005127,-0.2764211595058441,-0.09794147312641144],"max":[0.3605400323867798,-0.19621481001377106,0.09794148802757263]},{"componentType":5126,"count":390,"type":"VEC2","bufferView":35},{"componentType":5125,"count":948,"type":"SCALAR","bufferView":36},{"componentType":5126,"count":704,"type":"VEC3","bufferView":37,"min":[-1.0,-1.0,-1.0],"max":[1.0,1.0,1.0]},{"componentType":5126,"count":704,"type":"VEC3","bufferView":38,"min":[0.03233611211180687,0.038237862288951874,-0.12712502479553223],"max":[0.15913277864456177,0.1650344729423523,0.12712503969669342]},{"componentType":5126,"count":704,"type":"VEC2","bufferView":39},{"componentType":5125,"count":2484,"type":"SCALAR","bufferView":40},{"componentType":5126,"count":40,"type":"VEC3","bufferView":41,"min":[1.2848646235852357e-07,-3.17377448766365e-08,-1.0],"max":[4.5788840452587465e-07,2.58617319559562e-07,1.0]},{"componentType":5126,"count":40,"type":"VEC3","bufferView":42,"min":[-0.13352976739406586,-2.128051519393921,-0.1283474862575531],"max":[0.3619334399700165,0.1642238199710846,0.1283474862575531]},{"componentType":5126,"count":40,"type":"VEC4","bufferView":43},{"componentType":5126,"count":40,"type":"VEC2","bufferView":44},{"componentType":5126,"count":40,"type":"VEC2","bufferView":45},{"componentType":5125,"count":60,"type":"SCALAR","bufferView":46},{"componentType":5126,"count":390,"type":"VEC3","bufferView":47,"min":[-1.0,-1.0,-1.0],"max":[1.0,1.0,1.0]},{"componentType":5126,"count":390,"type":"VEC3","bufferView":48,"min":[0.2314739227294922,-1.4928826093673706,-0.09752251952886581],"max":[0.31168022751808167,-1.4126763343811035,0.09752252697944641]},{"componentType":5126,"count":390,"type":"VEC2","bufferView":49},{"componentType":5125,"count":948,"type":"SCALAR","bufferView":50},{"componentType":5126,"count":5229,"type":"VEC3","bufferView":51,"min":[-1.0,-1.0,-1.0],"max":[1.0,1.0,1.0]},{"componentType":5126,"count":5229,"type":"VEC3","bufferView":52,"min":[-0.2060927301645279,-1.9977071285247803,-0.10593341290950775],"max":[0.39089563488960266,-0.3312424123287201,0.10593345016241074]},{"componentType":5126,"count":5229,"type":"VEC4","bufferView":53},{"componentType":5126,"count":5229,"type":"VEC2","bufferView":54},{"componentType":5126,"count":5229,"type":"VEC2","bufferView":55},{"componentType":5126,"count":5229,"type":"VEC2","bufferView":56},{"componentType":5126,"count":5229,"type":"VEC2","bufferView":57},{"componentType":5125,"count":15327,"type":"SCALAR","bufferView":58}],"bufferViews":[{"buffer":0,"byteOffset":0,"byteLength":41004},{"buffer":0,"byteOffset":41004,"byteLength":41004},{"buffer":0,"byteOffset":82008,"byteLength":27336},{"buffer":0,"byteOffset":109344,"byteLength":44832},{"buffer":0,"byteOffset":154176,"byteLength":48},{"buffer":0,"byteOffset":154224,"byteLength":48},{"buffer":0,"byteOffset":154272,"byteLength":32},{"buffer":0,"byteOffset":154304,"byteLength":32},{"buffer":0,"byteOffset":154336,"byteLength":24},{"buffer":0,"byteOffset":154360,"byteLength":85284},{"buffer":0,"byteOffset":239644,"byteLength":85284},{"buffer":0,"byteOffset":324928,"byteLength":56856},{"buffer":0,"byteOffset":381784,"byteLength":77856},{"buffer":0,"byteOffset":459640,"byteLength":276},{"buffer":0,"byteOffset":459916,"byteLength":276},{"buffer":0,"byteOffset":460192,"byteLength":184},{"buffer":0,"byteOffset":460376,"byteLength":168},{"buffer":0,"byteOffset":460544,"byteLength":792},{"buffer":0,"byteOffset":461336,"byteLength":792},{"buffer":0,"byteOffset":462128,"byteLength":528},{"buffer":0,"byteOffset":462656,"byteLength":768},{"buffer":0,"byteOffset":463424,"byteLength":2376},{"buffer":0,"byteOffset":465800,"byteLength":2376},{"buffer":0,"byteOffset":468176,"byteLength":1584},{"buffer":0,"byteOffset":469760,"byteLength":1488},{"buffer":0,"byteOffset":471248,"byteLength":4680},{"buffer":0,"byteOffset":475928,"byteLength":4680},{"buffer":0,"byteOffset":480608,"byteLength":3120},{"buffer":0,"byteOffset":483728,"byteLength":3792},{"buffer":0,"byteOffset":487520,"byteLength":4680},{"buffer":0,"byteOffset":492200,"byteLength":4680},{"buffer":0,"byteOffset":496880,"byteLength":3120},{"buffer":0,"byteOffset":500000,"byteLength":3792},{"buffer":0,"byteOffset":503792,"byteLength":4680},{"buffer":0,"byteOffset":508472,"byteLength":4680},{"buffer":0,"byteOffset":513152,"byteLength":3120},{"buffer":0,"byteOffset":516272,"byteLength":3792},{"buffer":0,"byteOffset":520064,"byteLength":8448},{"buffer":0,"byteOffset":528512,"byteLength":8448},{"buffer":0,"byteOffset":536960,"byteLength":5632},{"buffer":0,"byteOffset":542592,"byteLength":9936},{"buffer":0,"byteOffset":552528,"byteLength":480},{"buffer":0,"byteOffset":553008,"byteLength":480},{"buffer":0,"byteOffset":553488,"byteLength":640},{"buffer":0,"byteOffset":554128,"byteLength":320},{"buffer":0,"byteOffset":554448,"byteLength":320},{"buffer":0,"byteOffset":554768,"byteLength":240},{"buffer":0,"byteOffset":555008,"byteLength":4680},{"buffer":0,"byteOffset":559688,"byteLength":4680},{"buffer":0,"byteOffset":564368,"byteLength":3120},{"buffer":0,"byteOffset":567488,"byteLength":3792},{"buffer":0,"byteOffset":571280,"byteLength":62748},{"buffer":0,"byteOffset":634028,"byteLength":62748},{"buffer":0,"byteOffset":696776,"byteLength":83664},{"buffer":0,"byteOffset":780440,"byteLength":41832},{"buffer":0,"byteOffset":822272,"byteLength":41832},{"buffer":0,"byteOffset":864104,"byteLength":41832},{"buffer":0,"byteOffset":905936,"byteLength":41832},{"buffer":0,"byteOffset":947768,"byteLength":61308}],"buffers":[{"uri":"geometry.bin","byteLength":1009076}],"materials":[{"doubleSided":true,"name":"material_0","pbrMetallicRoughness":{"metallicFactor":0.0,"roughnessFactor":0.6}},{"doubleSided":true,"extensions":{"KHR_materials_specular":{"specularColorFactor":[1.0,1.0,1.0],"specularFactor":0.2}},"name":"Material.009","pbrMetallicRoughness":{"baseColorFactor":[0.10829235995947611,0.10829235995947611,0.10829235995947611,1.0],"roughnessFactor":0.5}},{"alphaMode":"BLEND","doubleSided":true,"name":"Atlas","pbrMetallicRoughness":{"baseColorFactor":[0.16111610572391852,0.16111610572391852,0.16111610572391852,1.0],"baseColorTexture":{"index":0},"roughnessFactor":0.5}},{"doubleSided":true,"extensions":{"KHR_materials_specular":{"specularColorFactor":[1.0,1.0,1.0],"specularFactor":0.3}},"name":"Material.013","pbrMetallicRoughness":{"baseColorFactor":[0.0758955803843573,0.0758955803843573,0.0758955803843573,1.0],"roughnessFactor":0.5}},{"doubleSided":true,"name":"Material.015","pbrMetallicRoughness":{"baseColorFactor":[0.21709,0.21709,0.21709,1.0],"roughnessFactor":0.148561}},{"doubleSided":true,"name":"Material.008","pbrMetallicRoughness":{"baseColorFactor":[0.385439,0.385439,0.385439,1.0],"roughnessFactor":0.0658067}},{"alphaMode":"BLEND","doubleSided":true,"extensions":{"KHR_materials_specular":{"specularColorFactor":[1.0,1.0,1.0],"specularFactor":0.3}},"name":"PocketKnife_Normal","normalTexture":{"index":3},"occlusionTexture":{"index":2},"pbrMetallicRoughness":{"baseColorFactor":[0.16814380844179178,0.16814380844179178,0.16814380844179178,1.0],"baseColorTexture":{"index":1},"metallicRoughnessTexture":{"index":2},"roughnessFactor":0.5}},{"doubleSided":true,"name":"Box.008_Baked","normalTexture":{"index":6,"texCoord":2},"pbrMetallicRoughness":{"baseColorTexture":{"index":4},"metallicFactor":0.0,"metallicRoughnessTexture":{"index":5,"texCoord":1}}}],"textures":[{"sampler":0,"source":0},{"sampler":0,"source":1},{"sampler":0,"source":2},{"sampler":0,"source":3},{"sampler":0,"source":4},{"sampler":0,"source":5},{"sampler":0,"source":6}],"images":[{"uri":"texture-cf50fdd8a8537794.png"},{"uri":"texture-0f4dd70fa7a4e0b0.png"},{"uri":"texture-36e4ed7861203f5f.png"},{"uri":"texture-825d9834d6361843.png"},{"uri":"texture-3c48aab63bc2deb5.png"},{"uri":"texture-95b7353bbf7b7243.png"},{"uri":"texture-a3724c708bfe34a7.png"}],"samplers":[{"magFilter":9729,"minFilter":9987,"wrapS":10497,"wrapT":10497}],"extensionsUsed":["KHR_materials_specular"]}